<svg width="170" height="45" viewBox="0 0 170 45" fill="none" xmlns="http://www.w3.org/2000/svg">
<path d="M0 1.09302V44.3806H32.0943V39.2919H5.15985V32.7785C7.25819 34.305 9.83812 35.1871 12.6244 35.1871H22.497V20.1925H12.5212V25.2811H17.3371V30.0984H12.6244C8.49656 30.0984 5.15985 26.7738 5.15985 22.7368C5.15985 18.6659 8.53096 15.3752 12.6244 15.3752H17.2683V10.2865H12.6244C9.83812 10.2865 7.25819 11.2025 5.15985 12.6952V6.18168H38.7333V20.1925H32.0943V10.2526H22.1186V15.3413H26.9344V35.1871H32.0943V25.2811H38.6989V44.3806H43.8588V1.09302H0Z" fill="#FBBA00"/>
<path d="M72.2724 44.3467H68.2477V37.901H60.8519V44.3467H56.7928V27.8594H60.8519V34.78H68.2477V27.8594H72.2724V44.3467Z" fill="black"/>
<path d="M89.9878 36.1031C89.9878 33.2535 87.8895 31.3537 85.2064 31.3537C82.5577 31.3537 80.4593 33.2535 80.4593 36.1031C80.4593 38.9528 82.5577 40.8526 85.2064 40.8526C87.8895 40.8526 89.9878 38.9867 89.9878 36.1031ZM76.2626 36.1031C76.2626 31.3876 79.6337 27.4863 85.172 27.4863C90.779 27.4863 94.1501 31.3537 94.1501 36.1031C94.1501 40.8186 90.779 44.7199 85.172 44.7199C79.6337 44.7199 76.2626 40.8526 76.2626 36.1031Z" fill="black"/>
<path d="M98.3124 37.2225V27.8594H102.371V37.2225C102.371 39.1223 103.575 40.8524 106.018 40.8524C108.529 40.8524 109.63 39.1562 109.63 37.2225V27.8594H113.689V37.2225C113.689 41.497 110.799 44.7198 106.018 44.7198C101.271 44.7198 98.3124 41.497 98.3124 37.2225Z" fill="black"/>
<path d="M120.465 39.4617C120.465 39.4617 122.908 41.0561 125.35 41.0561C126.898 41.0561 127.448 40.4115 127.448 39.6652C127.448 38.8171 126.864 38.3761 124.318 37.6976C120.637 36.6798 118.539 35.3229 118.539 32.6089C118.539 29.6236 120.706 27.4863 125.247 27.4863C129.925 27.4863 131.783 29.2504 131.783 29.2504L129.616 32.5071C129.616 32.5071 127.792 31.1162 125.281 31.1162C123.699 31.1162 123.217 31.6251 123.217 32.3375C123.217 33.1517 124.008 33.491 126.107 34.0337C130.028 35.0515 132.195 36.4763 132.195 39.2242C132.195 42.2095 130.063 44.686 125.488 44.686C120.706 44.686 118.298 42.4809 118.298 42.4809L120.465 39.4617Z" fill="black"/>
<path d="M147.985 37.6635H140.623V40.9203H149.877V44.3467H136.564V27.8594H149.877V31.2857H140.623V34.5425H147.985V37.6635Z" fill="black"/>
<path d="M89.9878 9.33653C89.9878 6.48688 87.8895 4.58711 85.2064 4.58711C82.5577 4.58711 80.4593 6.48688 80.4593 9.33653C80.4593 12.1862 82.5577 14.086 85.2064 14.086C87.8895 14.086 89.9878 12.1862 89.9878 9.33653ZM76.2626 9.33653C76.2626 4.62104 79.6337 0.719727 85.172 0.719727C90.779 0.719727 94.1501 4.58711 94.1501 9.33653C94.1501 14.052 90.779 17.9533 85.172 17.9533C79.6337 17.9194 76.2626 14.052 76.2626 9.33653Z" fill="black"/>
<path d="M98.3124 17.5803V1.09302H102.337V14.1539H111.384V17.5803H98.3124Z" fill="black"/>
<path d="M120.809 4.51939V14.1539H123.389C126.279 14.1539 128.377 12.5256 128.377 9.33666C128.377 6.14776 126.279 4.51939 123.389 4.51939H120.809ZM123.733 17.5803H116.785V1.09302H123.733C129.306 1.09302 132.608 4.62116 132.608 9.33666C132.574 14.0522 129.306 17.5803 123.733 17.5803Z" fill="black"/>
<path d="M147.985 10.8972H140.623V14.1539H149.877V17.5803H136.564V1.09302H149.877V4.51939H140.623V7.77613H147.985V10.8972Z" fill="black"/>
<path d="M170 17.5803H169.071L158.27 8.48855V17.5803H154.245V1.09302H155.174L165.975 9.8116V1.09302H170V17.5803Z" fill="black"/>
<path d="M65.6678 4.51939H72.3068V1.09302H65.3582C59.7855 1.09302 56.4832 4.62116 56.4832 9.33666C56.4832 14.0522 59.7855 17.5803 65.3582 17.5803H72.3068V7.77613H65.0142V10.8972H68.2477V14.1539H65.6678C62.7782 14.1539 60.6799 12.5256 60.6799 9.33666C60.6799 6.14776 62.7438 4.51939 65.6678 4.51939Z" fill="black"/>
</svg>

