<svg width="165" height="41" viewBox="0 0 165 41" fill="none" xmlns="http://www.w3.org/2000/svg">
<g clip-path="url(#clip0)">
<path fill-rule="evenodd" clip-rule="evenodd" d="M16.3587 25.8756L13.2915 20.9294C10.938 20.9294 8.98959 20.7936 7.44632 20.5414L7.38844 27.7765C7.38844 29.2895 7.42702 31.0158 7.50419 32.8973C7.58135 34.7788 7.75497 36.1172 8.04434 36.8931C8.19866 37.378 8.43016 37.7272 8.77739 37.9212C9.10534 38.1345 9.87698 38.4061 11.073 38.7746C11.4588 38.8716 11.6517 39.0462 11.6517 39.2789C11.6517 39.7251 11.5167 39.9578 11.2852 39.9578C10.9959 39.9578 10.2628 39.8609 9.06676 39.6475C7.54277 39.4729 6.6168 39.3953 6.28886 39.3953C4.57196 39.3953 2.79719 39.5311 0.98384 39.8221C0.848803 39.8221 0.713766 39.8415 0.520856 39.8803C0.173619 39.8803 0 39.6863 0 39.3177C0 39.1044 0.0578729 38.9492 0.19291 38.8522C0.327947 38.7552 0.636602 38.6194 1.08029 38.4837C1.89052 38.2315 2.46924 37.8824 2.81648 37.378C3.18301 36.8737 3.43379 35.9039 3.60741 34.4879C3.76174 33.0525 3.85819 30.7443 3.87749 27.5632V14.218C3.91607 10.9593 3.89678 8.57348 3.85819 7.04112C3.80032 5.50875 3.66528 4.38372 3.43379 3.66603C3.14443 2.96774 2.79719 2.48282 2.29563 2.25005C1.81335 1.99789 1.04171 1.82332 0.019291 1.66814L0.135037 0.678895C1.061 0.717689 2.27634 0.737086 3.72316 0.737086C4.14756 0.737086 5.71013 0.620704 8.39157 0.368543C11.0537 0.116382 12.7706 0 13.4651 0C15.3363 0 17.0146 0.290955 18.5193 0.872865C20.024 1.45478 21.2586 2.23066 22.2811 3.20051C23.2842 4.17036 24.0366 5.27599 24.5574 6.5174C25.0783 7.7588 25.329 9.03901 25.329 10.3386C25.329 11.677 25.059 12.996 24.5381 14.2568C23.998 15.5176 23.207 16.6814 22.1075 17.7289C21.0272 18.7569 19.6382 19.6492 17.9213 20.3669L19.1366 22.4035C20.8342 25.2549 22.2232 27.5632 23.3421 29.3089C24.4417 31.0546 25.6377 32.7616 26.8916 34.3909C28.1455 36.0396 29.4187 37.3586 30.7112 38.3867C32.023 39.4147 33.2962 39.9772 34.5308 40.0936C34.8588 40.1518 35.0324 40.3652 35.0324 40.7143C35.0324 40.9083 34.9552 41.0441 34.8009 41.1217C34.6466 41.2187 34.2608 41.2574 33.6627 41.2574C31.9458 41.2574 30.3061 40.8307 28.705 39.9578C27.1231 39.1044 25.5991 37.9406 24.1716 36.4664C22.7441 34.9922 21.4709 33.4792 20.352 31.8887C19.2331 30.3563 17.902 28.3196 16.3587 25.8756ZM7.60064 18.7569C8.79668 19.0867 10.2435 19.2612 11.9411 19.2612C12.7899 19.2612 13.6966 19.1836 14.6418 19.0479C15.5871 18.9121 16.5709 18.6017 17.5934 18.1168C18.5965 17.6513 19.4646 16.8172 20.1976 15.6922C20.9307 14.5478 21.2972 13.0154 21.2972 11.0951C21.2972 9.7373 20.9886 8.30192 20.352 6.80835C19.7154 5.31478 18.7508 4.03458 17.4197 2.96774C16.0887 1.90091 14.4875 1.35779 12.597 1.35779C11.8061 1.35779 10.9187 1.47417 9.93485 1.70694C8.95101 1.9397 8.37228 2.30824 8.21795 2.79317C7.81284 3.78242 7.60064 9.0972 7.60064 18.7569Z" fill="#FF9021"/>
<path d="M33.0069 23.451H28.0298V21.9962C28.0298 20.3086 28.1841 19.009 28.4928 18.0974C28.8014 17.1857 29.4187 16.3711 30.364 15.6728C31.3093 14.9745 32.5053 14.6253 34.01 14.6253C35.804 14.6253 37.1544 15.0133 38.0611 15.8085C38.9678 16.6038 39.5079 17.5737 39.7008 18.7181C39.8937 19.8625 39.9709 22.2483 39.9709 25.8562V36.7767H34.8202V34.837C34.4923 35.6129 34.0679 36.1948 33.5663 36.6021C33.0647 36.9901 32.4474 37.184 31.7337 37.184C30.8077 37.184 29.9589 36.8543 29.1872 36.2142C28.4156 35.5547 28.0298 34.1387 28.0298 31.9275V30.1429C28.0298 28.5136 28.242 27.4079 28.6471 26.8066C29.0522 26.2053 30.0746 25.5264 31.7144 24.7312C33.4505 23.8777 34.3958 23.2958 34.5116 23.0048C34.6273 22.7139 34.7045 22.1126 34.7045 21.2009C34.7045 20.0565 34.6466 19.3194 34.4923 18.9702C34.3572 18.6211 34.1257 18.4465 33.8171 18.4465C33.4505 18.4465 33.2383 18.6017 33.1419 18.8927C33.0454 19.1836 33.0069 19.9401 33.0069 21.1427V23.451ZM34.6852 26.4381C33.8364 27.214 33.3348 27.8735 33.1998 28.3972C33.0647 28.9209 32.9876 29.6774 32.9876 30.6666C32.9876 31.7917 33.0454 32.5288 33.1612 32.8585C33.2769 33.1883 33.5084 33.3434 33.8749 33.3434C34.2029 33.3434 34.4344 33.2077 34.5308 32.9555C34.6273 32.7033 34.6852 32.0244 34.6852 30.9382V26.4381ZM52.6258 21.9768H47.9574V20.7936C47.9574 19.7849 47.9188 19.1448 47.8223 18.8927C47.7259 18.6211 47.4944 18.4853 47.1279 18.4853C46.8385 18.4853 46.607 18.6017 46.4527 18.8539C46.2983 19.106 46.2212 19.4746 46.2212 19.9595C46.2212 20.619 46.2598 21.1233 46.3369 21.4337C46.4141 21.744 46.6263 22.0932 47.0121 22.4617C47.3786 22.8303 48.131 23.3734 49.2884 24.0911C50.8317 25.0415 51.8348 25.9144 52.2978 26.7485C52.7801 27.5825 53.0116 28.7851 53.0116 30.3757C53.0116 32.1602 52.8187 33.4792 52.4522 34.3909C52.0856 35.2831 51.4683 36.0008 50.6195 36.4857C49.7514 36.9707 48.729 37.2228 47.4944 37.2228C46.144 37.2228 45.0058 36.9513 44.0413 36.447C43.0767 35.9232 42.4209 35.2055 42.0736 34.3133C41.7071 33.421 41.5335 32.0632 41.5335 30.2399V29.1925H46.2598V30.5697C46.2598 31.7335 46.3176 32.49 46.4334 32.8391C46.5491 33.1883 46.7806 33.3628 47.1279 33.3628C47.5137 33.3628 47.7645 33.2464 47.9188 33.0137C48.0731 32.7809 48.1503 32.2766 48.1503 31.5395C48.1503 30.4921 48.0538 29.852 47.8609 29.5804C47.668 29.3089 46.6263 28.533 44.7936 27.2528C43.2311 26.1665 42.2858 25.1773 41.9579 24.2656C41.6106 23.3734 41.4563 22.3259 41.4563 21.0845C41.4563 19.3388 41.6492 18.0586 42.0157 17.2439C42.3823 16.4098 42.9996 15.7697 43.887 15.3236C44.7744 14.8775 45.7775 14.6447 46.9542 14.6447C48.1117 14.6447 49.0955 14.8387 49.8865 15.1878C50.6967 15.5564 51.314 16.0413 51.7577 16.6426C52.1821 17.2439 52.4522 17.8064 52.5486 18.3108C52.6451 18.8345 52.6836 19.6297 52.6836 20.716V21.9768H52.6258ZM66.5539 15.0327V36.7961H61.1717L61.2681 34.9728C60.9016 35.7099 60.4579 36.2724 59.9178 36.6409C59.3776 37.0095 58.7603 37.2034 58.0658 37.2034C57.2749 37.2034 56.619 37.0289 56.0789 36.6797C55.558 36.3306 55.1722 35.865 54.9214 35.2831C54.6706 34.7012 54.5163 34.0999 54.4584 33.4598C54.4005 32.8391 54.362 31.5783 54.362 29.7162V15.0327H59.6477V29.852C59.6477 31.5395 59.6863 32.5482 59.7634 32.8779C59.8406 33.1883 60.0721 33.3628 60.4386 33.3628C60.8244 33.3628 61.0559 33.2077 61.1331 32.8779C61.2103 32.5482 61.2488 31.5007 61.2488 29.7162V15.0327H66.5539ZM73.9423 18.9702V36.7961H68.483V10.2222H70.0455L73.9423 18.9702ZM87.8125 22.6751V28.0093C87.8125 29.9684 87.7353 31.4037 87.581 32.3154C87.4267 33.2271 87.0795 34.0805 86.5779 34.8758C86.057 35.6711 85.4011 36.253 84.5909 36.6409C83.7807 37.0095 82.8547 37.2034 81.813 37.2034C80.6363 37.2034 79.6524 37.0483 78.8422 36.7185C78.032 36.3888 77.3954 35.9038 76.9517 35.2637C76.508 34.6042 76.1801 33.8284 75.9871 32.8973C75.7942 31.9662 75.6978 30.5891 75.6978 28.7463V23.16C75.6978 21.1233 75.8714 19.5522 76.2186 18.4077C76.5659 17.2633 77.2025 16.3517 78.1092 15.6728C79.0158 14.9745 80.1733 14.6447 81.6008 14.6447C82.7776 14.6447 83.8 14.8775 84.6681 15.3042C85.5169 15.7503 86.1728 16.3323 86.6358 17.0305C87.0988 17.7482 87.4074 18.4659 87.581 19.2224C87.7353 19.9789 87.8125 21.1233 87.8125 22.6751ZM82.5268 21.0263C82.5268 19.9207 82.4689 19.203 82.3918 18.9121C82.2953 18.6211 82.0831 18.4659 81.7744 18.4659C81.4658 18.4659 81.2536 18.6211 81.1378 18.9121C81.0414 19.203 80.9835 19.9013 80.9835 21.0263V30.8606C80.9835 31.8887 81.0414 32.5676 81.1378 32.8779C81.2536 33.1883 81.4465 33.3434 81.7552 33.3434C82.0638 33.3434 82.276 33.2077 82.3725 32.9167C82.4689 32.6257 82.5268 32.0244 82.5268 31.074V21.0263ZM100.525 15.0327L98.056 36.7961H91.1306L88.4684 15.0327H93.1947L94.6801 30.9382C94.7766 29.755 94.9888 26.9036 95.2781 22.3841C95.4324 19.8625 95.6061 17.3991 95.799 15.0327H100.525Z" fill="#AA240A"/>
<path d="M119.392 37.9599C118.273 39.5311 116.865 40.307 115.225 40.307C112.64 40.307 110.537 38.6776 108.898 35.4189C107.258 32.1602 106.428 28.2808 106.428 23.8195C106.428 18.7375 107.354 14.6447 109.206 11.483C111.058 8.34069 113.257 6.76953 115.784 6.76953C117 6.76953 118.08 7.09928 119.006 7.77818C119.315 7.99154 119.546 8.08853 119.7 8.08853C119.932 8.08853 120.125 7.85576 120.279 7.40963C120.434 6.9829 120.704 6.78893 121.07 6.78893H121.302L121.9 6.82772C122.305 6.90531 122.556 7.19627 122.652 7.73938L123.848 14.1792C123.983 14.8387 124.041 15.2848 124.041 15.5176C124.041 16.0025 123.713 16.2353 123.057 16.2353C122.401 16.2353 121.996 16.1383 121.803 15.9249C121.61 15.7309 121.244 15.0133 120.684 13.7912C119.932 12.1425 119.276 10.9981 118.697 10.358C118.119 9.71788 117.521 9.38813 116.865 9.38813C115.148 9.38813 114.28 10.8623 114.28 13.7912V35.4965C114.28 37.0871 114.762 37.8823 115.688 37.8823C116.71 37.8823 117.231 37.0871 117.231 35.4965V24.9251C117.231 24.2462 117 23.8001 116.556 23.5867C116.074 23.3734 115.842 22.9272 115.842 22.2677C115.842 21.5501 115.9 21.1233 116.035 20.9875C116.17 20.8518 116.44 20.7742 116.845 20.7742H124.793C125.179 20.7742 125.449 20.8518 125.565 20.9875C125.7 21.1427 125.758 21.4725 125.758 21.9962C125.758 22.5393 125.719 22.9272 125.642 23.1018C125.565 23.2958 125.372 23.451 125.044 23.5673C124.6 23.7419 124.369 24.1105 124.369 24.673V38.4254C124.369 39.2595 124.311 39.7638 124.215 39.9772C124.118 40.1906 123.848 40.2876 123.424 40.2876C123.038 40.2876 122.748 40.2682 122.575 40.1906C122.401 40.1324 122.17 39.9384 121.861 39.6281C121.07 38.7746 120.221 38.2121 119.392 37.9599ZM126.78 8.98079V7.91395C126.78 7.50662 126.992 7.29325 127.398 7.29325H136.387C136.734 7.29325 136.947 7.33204 137.043 7.42903C137.139 7.52601 137.197 7.79757 137.197 8.2825C137.197 9.00019 137.159 9.44632 137.101 9.62089C137.024 9.79546 136.869 9.91185 136.638 9.95064C135.866 10.0864 135.48 10.6295 135.48 11.5606V35.9038C135.48 36.4082 135.77 36.8155 136.329 37.1258C136.696 37.3198 136.908 37.475 136.985 37.6302C137.062 37.766 137.101 38.0181 137.101 38.3867V39.1625C137.101 39.5893 137.062 39.822 136.985 39.8802C136.908 39.9384 136.715 39.9578 136.406 39.9578H127.243C126.896 39.9578 126.722 39.8026 126.722 39.5117C126.722 38.5418 126.761 37.9599 126.819 37.7272C126.877 37.5138 127.108 37.3392 127.475 37.2228C128.15 37.0289 128.497 36.6409 128.497 36.0784V12.0261C128.497 11.4636 128.439 11.0369 128.304 10.7459C128.169 10.455 127.899 10.2222 127.475 10.0282C127.166 9.89245 126.973 9.75667 126.896 9.64029C126.819 9.52391 126.78 9.31054 126.78 8.98079Z" fill="#AA240A"/>
<path fill-rule="evenodd" clip-rule="evenodd" d="M158.765 29.9296C157.665 30.3369 156.469 30.5309 155.292 30.5309C154.116 30.5309 152.939 30.3369 151.82 29.9296C151.048 29.6386 150.219 29.5028 149.389 29.5028H149.042V35.8069H161.543V29.5028H161.195C160.366 29.5028 159.536 29.6386 158.765 29.9296Z" fill="#FF9021"/>
<path fill-rule="evenodd" clip-rule="evenodd" d="M157.974 3.95695C157.125 3.6466 156.199 3.49142 155.292 3.49142C154.386 3.49142 153.46 3.6466 152.611 3.95695C151.646 4.3061 150.624 4.48067 149.602 4.48067H149.042C149.042 11.4442 149.042 18.3883 149.042 25.3519H149.602C150.624 25.3519 151.646 25.5264 152.611 25.8756C153.46 26.1859 154.386 26.3411 155.292 26.3411C156.199 26.3411 157.125 26.1859 157.974 25.8756C158.938 25.5264 159.961 25.3519 160.983 25.3519H161.543C161.543 18.3883 161.543 11.4442 161.543 4.48067H160.983C159.961 4.48067 158.938 4.3061 157.974 3.95695Z" fill="#FF9021"/>
<path fill-rule="evenodd" clip-rule="evenodd" d="M145.57 0V39.9384H165.015V0H145.57ZM162.546 36.8155H148.058V28.5136H149.409C150.373 28.5136 151.318 28.6688 152.187 28.9985C153.17 29.3477 154.231 29.5416 155.312 29.5416C156.392 29.5416 157.453 29.3477 158.437 28.9985C159.305 28.6882 160.25 28.5136 161.215 28.5136H162.565V36.8155H162.546ZM162.546 26.3411H161.002C160.077 26.3411 159.17 26.4963 158.321 26.8067C157.376 27.1558 156.353 27.3304 155.312 27.3304C154.27 27.3304 153.248 27.1558 152.302 26.8067C151.453 26.4963 150.547 26.3411 149.621 26.3411H148.078C148.078 18.7181 148.078 11.0951 148.078 3.47206H149.621C150.547 3.47206 151.453 3.31689 152.302 3.00654C153.248 2.65739 154.27 2.48282 155.312 2.48282C156.353 2.48282 157.376 2.65739 158.321 3.00654C159.17 3.31689 160.077 3.47206 161.002 3.47206H162.546C162.546 11.0951 162.546 18.7181 162.546 26.3411Z" fill="#FF9021"/>
<path fill-rule="evenodd" clip-rule="evenodd" d="M69.9297 8.10794H74.4438V18.272L69.9297 8.10794Z" fill="#FF9021"/>
</g>
<defs>
<clipPath id="clip0">
<rect width="165" height="41" fill="white"/>
</clipPath>
</defs>
</svg>

