<svg xmlns="http://www.w3.org/2000/svg" width="62" height="59.998" viewBox="0 0 62 59.998">
  <defs>
    <style>
      .cls-1 {
        fill: #aa240a;
        fill-rule: evenodd;
      }
    </style>
  </defs>
  <path id="icon_02.svg" class="cls-1" d="M779.229,996.438h-4.513a1.364,1.364,0,0,1,0-2.727h4.513A1.364,1.364,0,0,1,779.229,996.438Zm2.892,6.822-3.521-.01a1.36,1.36,0,1,1,0-2.72h3.521a1.365,1.365,0,0,0,1.361-1.364v-45a1.364,1.364,0,0,0-1.362-1.364h-10.9a1.364,1.364,0,0,0-1.363,1.364v45a1.365,1.365,0,0,0,1.363,1.364h2.133a1.365,1.365,0,0,1,0,2.73H771.22a4.1,4.1,0,0,1-4.088-4.094v-45a4.1,4.1,0,0,1,4.088-4.092h10.9a4.1,4.1,0,0,1,4.088,4.092v45A4.1,4.1,0,0,1,782.121,1003.26Zm36.791,0H788.3a1.365,1.365,0,0,1,0-2.73h30.617a1.366,1.366,0,0,0,1.363-1.364v-10.91a1.365,1.365,0,0,0-1.363-1.363h-4a1.364,1.364,0,0,1,0-2.727h4a4.094,4.094,0,0,1,4.088,4.09v10.91A4.1,4.1,0,0,1,818.912,1003.26Zm-5.451-5.458a1.363,1.363,0,0,1-1.362-1.364v-5.454a1.363,1.363,0,1,1,2.725,0v5.454A1.364,1.364,0,0,1,813.461,997.8Zm-6.813,0a1.363,1.363,0,0,1-1.362-1.364v-5.454a1.363,1.363,0,1,1,2.725,0v5.454A1.364,1.364,0,0,1,806.648,997.8Zm-6.813,0a1.364,1.364,0,0,1-1.363-1.364v-1.875a1.363,1.363,0,0,1,2.726,0v1.875A1.364,1.364,0,0,1,799.835,997.8Zm-11.1-6.673a1.363,1.363,0,0,1-1.178-2.046L803.873,960.8a1.364,1.364,0,0,0-.5-1.863l-9.441-5.454a1.36,1.36,0,0,0-1.861.5l-2.155,3.736a1.363,1.363,0,1,1-2.36-1.364l2.155-3.736a4.087,4.087,0,0,1,5.584-1.5l9.441,5.455a4.093,4.093,0,0,1,1.5,5.588l-16.316,28.281A1.363,1.363,0,0,1,788.735,991.129Zm8.921-26.372a1.357,1.357,0,0,1-.68-0.183l-4.72-2.727a1.363,1.363,0,0,1,1.362-2.362l4.721,2.728A1.364,1.364,0,0,1,797.656,964.757Zm-3.407,5.905a1.357,1.357,0,0,1-.68-0.183l-4.72-2.727a1.364,1.364,0,0,1,1.363-2.362l4.72,2.727A1.364,1.364,0,0,1,794.249,970.662Zm-3.406,5.9a1.354,1.354,0,0,1-.68-0.183l-2.108-1.218a1.364,1.364,0,0,1,1.363-2.362l2.107,1.218A1.364,1.364,0,0,1,790.843,976.567Zm-2.1,20.9a1.364,1.364,0,0,1-.683-2.544l29.585-17.093a1.365,1.365,0,0,0,.5-1.863l-5.45-9.448a1.364,1.364,0,0,0-1.862-.5l-3.766,2.176a1.363,1.363,0,0,1-1.362-2.362l3.766-2.176a4.088,4.088,0,0,1,5.584,1.5l5.45,9.448a4.091,4.091,0,0,1-1.5,5.588L789.418,997.28A1.357,1.357,0,0,1,788.738,997.463Zm22.108-19.072a1.36,1.36,0,0,1-1.181-.682l-2.725-4.724a1.363,1.363,0,1,1,2.36-1.363l2.725,4.723A1.364,1.364,0,0,1,810.846,978.391Zm-5.9,3.409a1.362,1.362,0,0,1-1.181-.682l-2.726-4.723a1.363,1.363,0,1,1,2.361-1.364l2.725,4.724A1.363,1.363,0,0,1,804.946,981.8Zm-5.9,3.409a1.362,1.362,0,0,1-1.182-.682l-1.193-2.068a1.363,1.363,0,1,1,2.36-1.364l1.193,2.069A1.363,1.363,0,0,1,799.046,985.209Zm-28.508,24.861a9.543,9.543,0,0,1-7.418-15.541,1.363,1.363,0,1,1,2.118,1.715,6.745,6.745,0,0,0-1.513,4.286,6.814,6.814,0,1,0,11.89-4.549,1.363,1.363,0,1,1,2.029-1.82A9.544,9.544,0,0,1,770.538,1010.07Z" transform="translate(-761 -950.062)"/>
</svg>

