<?xml version="1.0" encoding="UTF-8"?>
<!DOCTYPE svg PUBLIC "-//W3C//DTD SVG 1.1//EN" "http://www.w3.org/Graphics/SVG/1.1/DTD/svg11.dtd">
<!-- Creator: CorelDRAW 2021 (64-Bit) -->
<svg xmlns="http://www.w3.org/2000/svg" xml:space="preserve" width="117.26mm" height="60.8393mm" version="1.1" style="shape-rendering:geometricPrecision; text-rendering:geometricPrecision; image-rendering:optimizeQuality; fill-rule:evenodd; clip-rule:evenodd"
viewBox="0 0 12921.19 6704.02"
 xmlns:xlink="http://www.w3.org/1999/xlink"
 xmlns:xodm="http://www.corel.com/coreldraw/odm/2003">
 <defs>
  <style type="text/css">
   <![CDATA[
    .str0 {stroke:black;stroke-width:22.04;stroke-miterlimit:22.9256}
    .fil11 {fill:#DD1201}
    .fil6 {fill:#E61601}
    .fil4 {fill:#E91601}
    .fil3 {fill:#EE1900}
    .fil0 {fill:#EE1900}
    .fil7 {fill:#F1CFCF}
    .fil5 {fill:#F4F5F6}
    .fil8 {fill:#F9F9F6}
    .fil10 {fill:#FAFAF9}
    .fil1 {fill:#FAFEFA}
    .fil9 {fill:#FEF4F2}
    .fil2 {fill:#FFFDFB}
   ]]>
  </style>
 </defs>
 <g id="Слой_x0020_1">
  <metadata id="CorelCorpID_0Corel-Layer"/>
  <g id="_2603681028400">
   <rect class="fil0 str0" x="11.01" y="11.01" width="12899.15" height="6681.99"/>
   <g>
    <path class="fil1" d="M8699.73 2918.18c10.27,-40.98 76.72,-136.14 101.53,-166.42 84.9,-103.61 129.66,-77.34 127,-137.5 -177.01,-83.79 -349.18,202.47 -405.08,305.35 -80.76,0.64 -176.76,-14.64 -176.61,37.34 0.14,48.07 67.14,35.28 137.91,38.09 -28.36,91.29 -103.45,238.46 -155.59,301.35 -104.1,125.58 -337.05,336.67 -254.2,27.32 13.76,-51.38 31.36,-91.82 50.38,-138.09 32.77,-79.75 128.48,-228.18 99.39,-257.98 -104.63,-62.51 -213.51,119.51 -252.84,198.2 -72.44,144.95 -67.45,173.86 -193.72,263.23 -407.54,288.4 -614.48,-59.83 -625.79,-65.44l1.08 172.14c108.98,68.28 260.23,93.55 407.4,69.16 199.97,-33.15 285.46,-138.2 339.84,-163.62 23.06,101.88 101.81,186.13 236.57,152.03 81.13,-20.52 175.62,-116.76 225.61,-168.33l20.64 37.55c5.34,12.83 7.1,20.34 13.36,32.86 81.8,163.7 284.92,116.66 400.6,-33.75l38.28 51.67c31.76,52.17 84.25,82.09 151.86,85.11 132.29,5.9 169.34,-77.29 214.99,-99.64 -31.93,152.52 -180.15,344.74 -259.94,432.44 -350.07,384.84 -886.29,497.64 -1349.34,189.86 -33.78,-22.46 -61.82,-64.02 -108.5,-41.9 -3.7,48.84 21.37,55.14 53.72,78.01 553.17,390.96 1197.37,272.98 1610.91,-233.44 213.68,-261.68 226.75,-575.83 377.22,-854.18 26.5,-49.02 63.18,-59.63 59.37,-110.69 -145.24,-52.5 -257.39,175 -313.64,275.84 -48.21,86.42 -177.59,345.63 -304.08,286.7 -98.34,-59.28 130.84,-419.37 180.41,-485.25 81.89,-108.86 -89.67,-89.27 -186.32,19.2 -150,168.34 -79.98,206.63 -235.5,361.74 -36.24,36.14 -109.59,115.82 -185.18,99.94 -51.4,-100.74 75.8,-407.04 118.73,-482.79 68.68,-2.31 177.11,16.8 223.33,-21.55l-8.18 -42.74c-46.08,-17.62 -117.69,-7.15 -175.62,-11.82z"/>
    <path class="fil2" d="M3519.06 3378.93l-0.1 -533.88c235.58,-15.7 391.62,21.26 395.88,261.03 4.47,252.11 -154.6,297.14 -395.78,272.85zm-183.92 159.59c412.52,22.45 771.41,19.35 771.81,-422.8 0.17,-191.55 -72.3,-320.36 -209.92,-385.87 -114.72,-54.61 -409.83,-51.03 -558.96,-39.82l-2.93 848.49z"/>
    <path class="fil2" d="M6266.81 3538.64c4.11,-94.77 -10.56,-341.01 11.55,-408.78 36.19,-110.92 214.41,-141.1 214.41,41.71l1.36 366.81 171.11 -1.75 0.91 -234.43c-0.1,-96.75 -15.52,-220.57 76.11,-249.71 113.6,-36.13 146.9,31.96 146.99,128.42l0.65 357 175.77 -2.5 0.09 -130.59c0.68,-200.01 34.29,-429.41 -128.79,-486.47 -105.23,-36.83 -252.45,8.99 -283.92,82.45 -35.74,-19.7 -16.54,-12.2 -46.21,-42.78 -40.75,-42.01 -94.39,-53.2 -157.05,-51.44 -128.62,3.63 -135.11,62.39 -190.19,91.31l-1.36 -75.71 -163.08 0.43 0.43 615.24 171.24 0.8z"/>
    <path class="fil1" d="M5781.89 3248.7c-0.61,79.12 0.64,131.83 -55.74,169.6 -153.17,102.58 -281.91,-87.12 -131.5,-133.97 32.13,-10.02 148.94,-30.9 187.24,-35.63zm-241.68 -138.52c32.28,-65.71 31.23,-94.96 135.71,-92.13 68.84,1.86 146.3,48.79 94.45,116.47 -32.58,42.53 -265.54,41.3 -346.03,93.02 -104.07,66.86 -98.01,218.7 6.14,291.72 86.57,60.7 282.79,45.28 335.26,-32.79 19.77,15.76 18.69,16.42 31.22,51.43l171.86 0.53c-56.04,-295.24 51.35,-523.27 -120.81,-603.99 -171,-80.18 -473.04,-20.85 -465.52,177.76l157.73 -2.03z"/>
    <path class="fil1" d="M4829.73 3166.6c11.1,-79.2 51.58,-136.96 136.84,-138.53 88.5,-1.64 126.17,56.19 138.18,138.9l-63.48 -0.13 -111.96 0.08 -99.58 -0.31zm275.25 182.2c-89.65,165.28 -281.53,87.39 -274.93,-74.37l451.57 -2.21c35.47,-429 -518.69,-499.42 -622.13,-130.5 -54.83,195.55 61.22,353.85 205.75,400.06 181.92,58.17 390.12,-51.74 401.64,-193.6l-161.89 0.62z"/>
    <path class="fil3" d="M3519.06 3378.93c241.18,24.3 400.25,-20.74 395.78,-272.85 -4.25,-239.78 -160.3,-276.74 -395.88,-261.03l0.1 533.88z"/>
    <path class="fil1" d="M6896.35 2817.05c36.65,21.99 161.1,32.93 205.98,131.02l8.87 -11.29c1.93,-3.14 8.82,-15.24 10.44,-18.82 4.28,-9.48 9.12,-26.04 12.13,-34.35 128.13,-353.33 586.17,-590.36 860.36,-322.7 30.72,29.99 33.32,32.19 75.82,19.76 28.72,-88.88 -163.57,-175.73 -247.79,-200.4 -335.09,-98.15 -787.43,88.29 -925.81,436.78z"/>
    <path class="fil1" d="M4391.65 3538.78c19.44,-101.63 -11.28,-248.62 11.68,-350.29 28.57,-126.54 98.18,-121.24 228.43,-126.1l-2.14 -150.28c-163.24,-24.28 -201.17,86.38 -241.91,110.68l-2.15 -101.26 -163.76 2.07 3.75 615.85 166.09 -0.67z"/>
    <path class="fil4" d="M5781.89 3248.7c-38.3,4.73 -155.11,25.61 -187.24,35.63 -150.4,46.85 -21.66,236.55 131.5,133.97 56.37,-37.76 55.13,-90.48 55.74,-169.6z"/>
    <path class="fil5" d="M6394.06 3959.84c9.2,-20.74 12.97,-38.91 19.2,-58.7 0.51,-1.59 10.4,-28.12 10.44,-28.18l19.44 -24.77c0.55,35.69 -7.57,85.89 6.91,114.8l27.99 -0.73c16.73,-29.82 12.24,-157.4 3.31,-197.18l-55.99 -1.7 -52.33 125.17 -48.84 -124.57 -54.63 1.61c-8.31,41.2 -12.71,163.79 3.23,197.28l27.99 -0.61c17.61,-35.61 -4.12,-70.49 18.67,-102.92 24.62,53.92 12.42,107.12 74.63,100.5z"/>
    <path class="fil6" d="M4829.73 3166.6l99.58 0.31 111.96 -0.08 63.48 0.13c-12.01,-82.71 -49.69,-140.54 -138.18,-138.9 -85.26,1.58 -125.74,59.34 -136.84,138.53z"/>
    <path class="fil7" d="M6027.7 3897.29c59.02,-6.83 128.98,-0.32 110.17,-87.42 -12.15,-56.26 -99.49,-54.03 -163.37,-41.93 -0.96,47.27 -11.87,161.99 9.02,195.57l28.03 0.96c10.29,-13.32 3.55,-0.11 9.4,-20.66l6.74 -46.52z"/>
    <path class="fil8" d="M5776.72 3924.84c-113.2,21.82 -96.5,-99.93 -55.87,-120.8 69.18,-35.55 101.37,52.61 55.87,120.8zm63.37 -25.56c48.89,-140.11 -146.47,-185.72 -187.53,-78.61 -53.82,140.34 141.59,210.27 187.53,78.61z"/>
    <path class="fil8" d="M6947.53 3845.19c66.9,47.43 41.73,118.6 126.63,117.42 6.42,-38.04 3.13,-71.53 3.81,-110.14 1.37,-76.18 3.94,-74.67 -21.51,-87.05 -24.91,12.43 -10.15,-2.07 -19.24,22.99 -1.79,4.93 -2.93,29.27 -2.95,35.53 -0.08,21.67 1.6,41.31 0.84,63.76 -62.69,-39.42 -28.76,-126.35 -128.72,-120.56l2.84 195.84 39.49 -1.13 -1.2 -116.65z"/>
    <path class="fil5" d="M4273.15 3801.29l66.39 7.66c29.93,35.7 36.57,54.85 8.53,108.51l-75.26 6.92 0.34 -123.08zm-41.48 161.44c98.69,2.89 178.92,8.9 176.76,-100.73 -2.09,-105.95 -86.9,-98.09 -179.97,-95.66l3.21 196.38z"/>
    <path class="fil9" d="M5148.1 3824.64c16.54,-18.79 -5.3,-10.98 23.88,-20.82 5.65,-1.91 29.96,-1.41 37.54,-1.58 42.47,-0.93 29.66,10.66 46.93,-14.93 -13.1,-32.69 15.37,-12.54 -28.09,-22.24l-127.24 6.26 1.6 188.33 133.32 2.93c23.58,-6.46 9.53,4.48 21.43,-16.67 -21.55,-46.91 -10.67,-6.48 -109.53,-23.32l0.12 -38.12c75.1,-18.8 76.35,17.85 98.43,-22.53 -23.2,-42.34 -29.42,-0.43 -81.62,-21.41 -27.31,-10.96 -2.64,8.77 -16.78,-15.91z"/>
    <path class="fil9" d="M4584.24 3824.64c14.5,-21.4 -26.16,-20.11 45.77,-23.25 23.85,-1.04 33.94,2.05 61.8,-1.63l-2.44 -34.9 -148.2 1.02 0.34 196.81 117.23 0.8c41.83,0.37 26.61,1.52 36.29,-17.58 -21.73,-48.93 -59.49,1 -110.7,-27.99l0.56 -36.82c40.19,-3.38 85.76,9.91 99.32,-19.16 -12.02,-26.27 -2.61,-16.35 -44.12,-17.04 -76.94,-0.85 -45.62,5.62 -55.86,-20.29z"/>
    <path class="fil10" d="M8219.07 2680.76c-23.16,11.69 -71.51,32.97 -43.01,99.13 15.14,35.14 62.04,60.32 111.66,37.21 83.89,-39.06 29.58,-185.94 -68.65,-136.34z"/>
    <path class="fil5" d="M6666.48 3824.64c15,-20.88 -12.68,-7.52 18.31,-19.87 37.02,-14.77 67.82,18.79 92.31,-17.45 -13.13,-31.67 14.4,-12.34 -28.05,-21.95l-126.84 6.59 1.07 187.9 133.58 2.57c23.42,-6.33 9.75,3.7 22.26,-16.5 -22.83,-43.83 -14.18,-8.71 -111.17,-22.81l-0.12 -39.58c83.27,-16.46 78.1,17.64 100.18,-21.58 -29.82,-51 -78.55,19.37 -101.51,-37.32z"/>
    <path class="fil8" d="M4805.29 3765.93c15.46,64.65 35.32,135.78 62.8,195.91l49.06 0.24c14.28,-32.32 65.27,-169.35 63.44,-197.84l-36.56 0.93c-23.9,39.57 -25.61,94.35 -52.02,124.91 -13.22,-22.45 -19.43,-49.48 -27.31,-75.56 -16.12,-53.42 -8.01,-47.65 -59.4,-48.59z"/>
    <polygon class="fil5" points="7369.82,3796.58 7366.44,3764.41 7201.96,3766.46 7200.27,3800.2 7262.41,3803.08 7265.12,3963.48 7307.37,3961.73 7308.54,3806.2 "/>
    <path class="fil9" d="M5388.58 3961.9c36.67,2.57 114.28,10.23 142.79,-6.63l0.23 -18.67c-22.64,-18.92 -61.6,-10.42 -99.25,-11.8l-5.17 -160.26 -40.48 0.6 1.88 196.77z"/>
    <path class="fil11" d="M5776.72 3924.84c45.5,-68.2 13.31,-156.35 -55.87,-120.8 -40.63,20.87 -57.33,142.62 55.87,120.8z"/>
    <path class="fil11" d="M4272.81 3924.38l75.26 -6.92c28.04,-53.65 21.4,-72.8 -8.53,-108.51l-66.39 -7.66 -0.34 123.08z"/>
   </g>
  </g>
 </g>
</svg>

