<svg xmlns="http://www.w3.org/2000/svg" width="64" height="56" viewBox="0 0 64 56">
  <defs>
    <style>
      .cls-1 {
        fill: #aa240a;
        fill-rule: evenodd;
      }
    </style>
  </defs>
  <path id="icon_04.svg" class="cls-1" d="M1438,1001.99v-2h2v2h-2Zm-4,0v-2h2v2h-2Zm58.7-5.293-0.25.182L1467.24,1010h-2.42l-17-6.01H1444a2,2,0,0,1-2,2h-12v-2h12v-18h-12v-2h12a2,2,0,0,1,2,2h8.17l11,4h8.82a4,4,0,0,1,4,4c0,0.119-.02.23-0.03,0.345l14.03-4.346a4.009,4.009,0,0,1,4,4A4.42,4.42,0,0,1,1492.7,996.7Zm-2.57-4.7-15.27,4.771a3.98,3.98,0,0,1-2.87,1.226h-11a2,2,0,0,0-2,2h-2a4.008,4.008,0,0,1,4-4h11a2,2,0,0,0,0-4h-9.17l-11-4H1444v14h4.17l16.99,6h1.59l24.62-12.807a2.32,2.32,0,0,0,.62-1.193A2.007,2.007,0,0,0,1490.13,992Zm-10.14-14.876v3.867a1,1,0,0,1-1,1h-24a1,1,0,0,1-1-1v-3.867l-5.96-21.878a0.992,0.992,0,0,1,1.44-1.132V954.1l11,6-0.96,1.756-6.83-3.731,6.22,8.1,7.24-11.769a1.036,1.036,0,0,1,1.7,0l7.24,11.769,6.23-8.1-6.84,3.731-0.96-1.756,11-6v0.009a0.992,0.992,0,0,1,1.44,1.132Zm-4.21-8.527a0.987,0.987,0,0,1-.84.39,1,1,0,0,1-.8-0.475l-7.15-11.62-7.14,11.62a1.031,1.031,0,0,1-.8.475,1.013,1.013,0,0,1-.85-0.39l-6.91-8.983,4.47,16.376h4.23v2h-4v2h22v-2h-4v-2h4.24l4.46-16.376Zm-5.79,7.393h2v2h-2v-2Zm-3-2a4,4,0,1,1,4-4A4.008,4.008,0,0,1,1466.99,973.984Zm0-6a2,2,0,1,0,2,2A2,2,0,0,0,1466.99,967.983Zm-3,10h-2v-2h2v2Zm4,0h-2v-2h2v2Z" transform="translate(-1430 -954)"/>
</svg>

