<svg width="179" height="66" viewBox="0 0 179 66" fill="none" xmlns="http://www.w3.org/2000/svg">
<path d="M109.989 49.2452C109.989 38.5277 109.989 28.2158 109.989 17.4983C113.755 17.4983 117.694 17.4983 121.46 17.4983V21.2639C118.969 21.2639 116.246 21.2639 113.755 21.2639V31.46H117.752V35.2256H113.755V45.4796H121.46V49.2452C117.694 49.2452 113.755 49.2452 109.989 49.2452Z" fill="black"/>
<path fill-rule="evenodd" clip-rule="evenodd" d="M54.5481 36.3263L60.2834 31.5758C60.2834 35.9787 60.2834 40.4395 60.2834 44.8423C60.2834 47.3913 58.2558 49.4769 55.7647 49.5928H53.5053C50.9563 49.5928 48.8707 47.4493 48.8707 44.8423V21.8432C48.8707 19.2363 50.9563 17.0928 53.5053 17.0928H55.7647C58.2558 17.2086 60.2834 19.2942 60.2834 21.8432V27.173L56.5178 30.3013V22.5384C56.5178 21.4377 55.6488 20.5108 54.5481 20.5108C53.4474 20.5108 52.5784 21.4377 52.5784 22.5384V44.263C52.5784 45.3637 53.4474 46.2906 54.5481 46.2906C55.6488 46.2906 56.5178 45.3637 56.5178 44.263V39.107L54.5481 40.7291V36.3263Z" fill="black"/>
<path d="M133.104 24.9716C133.104 27.8102 135.711 31.1703 137.102 33.3717C138.782 35.9787 140.693 38.4698 140.809 41.714C140.809 42.7568 140.809 43.8575 140.809 44.9003C140.809 47.5072 138.724 49.6507 136.175 49.6507H133.915C131.424 49.5348 129.397 47.4493 129.397 44.9003V39.5705H133.162V44.2051C133.162 45.3058 134.031 46.2327 135.132 46.2327C136.233 46.2327 137.102 45.3058 137.102 44.2051C137.102 43.394 137.102 42.583 137.102 41.7719C137.102 38.9332 134.495 35.5732 133.104 33.3717C131.424 30.7648 129.512 28.2737 129.397 25.0295C129.397 23.9867 129.397 22.886 129.397 21.8432C129.397 19.2363 131.482 17.0928 134.031 17.0928H136.291C138.782 17.2086 140.809 19.2942 140.809 21.8432V27.173H137.044V22.5384C137.044 21.4377 136.175 20.5108 135.074 20.5108C133.973 20.5108 133.104 21.4377 133.104 22.5384C133.104 23.3495 133.104 24.1026 133.104 24.9716Z" fill="black"/>
<path d="M171.108 24.9716C171.108 27.8102 173.715 31.1703 175.105 33.3717C176.785 35.9787 178.697 38.4698 178.813 41.714C178.813 42.7568 178.813 43.8575 178.813 44.9003C178.813 47.5072 176.727 49.6507 174.178 49.6507H171.919C169.428 49.5348 167.4 47.4493 167.4 44.9003V39.5705H171.166V44.2051C171.166 45.3058 172.035 46.2327 173.135 46.2327C174.236 46.2327 175.105 45.3058 175.105 44.2051C175.105 43.394 175.105 42.583 175.105 41.7719C175.105 38.9332 172.498 35.5732 171.108 33.3717C169.428 30.7648 167.516 28.2737 167.4 25.0295C167.4 23.9867 167.4 22.886 167.4 21.8432C167.4 19.2363 169.486 17.0928 172.035 17.0928H174.294C176.785 17.2086 178.813 19.2942 178.813 21.8432V27.173L175.047 30.3013V22.5384C175.047 21.4377 174.178 20.5108 173.078 20.5108C171.977 20.5108 171.108 21.4377 171.108 22.5384C171.108 23.3495 171.108 24.1026 171.108 24.9716Z" fill="black"/>
<path d="M154.134 49.2452H152.222V35.9207L147.124 17.4983H150.832L154.134 28.7951L157.378 17.4983H161.144L155.988 35.9207V49.2452H154.134Z" fill="black"/>
<path d="M92.6675 49.2452V31.9814L97.1283 49.2452H100.894V17.4983H97.1283V34.7621L92.6675 17.4983H88.9598V49.2452H92.6675Z" fill="black"/>
<path d="M69.0891 49.2452C69.0891 38.5277 69.0891 28.2158 69.0891 17.4983C72.8547 17.4983 76.7941 17.4983 80.5597 17.4983V21.2639C78.0686 21.2639 75.3458 21.2639 72.8547 21.2639V31.46H76.852V35.2256H72.8547V45.4796H80.5597V49.2452C76.7362 49.2452 72.8547 49.2452 69.0891 49.2452Z" fill="black"/>
<path d="M6.17466 14.1382L0.207642 10.5464V56.197L16.3707 65.8717V58.746L6.17466 52.6631V14.1382Z" fill="url(#paint0_linear)"/>
<path d="M0.207642 10.5463L6.17466 14.1381L16.3707 8.05518L26.5668 14.1381L32.5918 10.5463L16.3707 0.871582L0.207642 10.5463Z" fill="url(#paint1_linear)"/>
<path d="M16.3707 8.05542V15.0073L26.5668 21.264V14.1383L16.3707 8.05542Z" fill="url(#paint2_linear)"/>
<path d="M6.17468 14.1383V52.6633L11.7941 49.3032V17.788L16.3708 15.0073V8.05542L6.17468 14.1383Z" fill="url(#paint3_linear)"/>
<path d="M26.5668 14.1382V21.2639L32.5917 17.6721V10.5464L26.5668 14.1382Z" fill="url(#paint4_linear)"/>
<path d="M16.3708 52.0258L11.7941 49.303L6.17468 52.6631L16.3708 58.7459L26.5668 52.6631L20.9474 49.303L16.3708 52.0258Z" fill="url(#paint5_linear)"/>
<path d="M20.9474 37.0794V43.9733L26.5668 40.4395V52.6632L16.3707 58.746V65.8717L32.5918 56.1391V30.0696L20.9474 37.0794Z" fill="url(#paint6_linear)"/>
<path d="M20.9474 43.9733V49.3031L26.5668 52.6632V40.4395L20.9474 43.9733Z" fill="url(#paint7_linear)"/>
<path d="M14.9803 40.6711L20.9474 43.9733V37.0793L14.9803 33.4875V40.6711Z" fill="url(#paint8_linear)"/>
<path d="M14.9803 33.4875L20.9474 37.0793L32.5918 30.0695L26.5668 26.5356L14.9803 33.4875Z" fill="url(#paint9_linear)"/>
<defs>
<linearGradient id="paint0_linear" x1="8.28572" y1="10.5657" x2="8.28572" y2="56.1932" gradientUnits="userSpaceOnUse">
<stop stop-color="#57328A"/>
<stop offset="1" stop-color="#AE5EA1"/>
</linearGradient>
<linearGradient id="paint1_linear" x1="20.6424" y1="3.42193" x2="12.1438" y2="17.6791" gradientUnits="userSpaceOnUse">
<stop stop-color="#57328A"/>
<stop offset="1" stop-color="#AE5EA1"/>
</linearGradient>
<linearGradient id="paint2_linear" x1="23.0323" y1="12.0211" x2="19.9503" y2="17.177" gradientUnits="userSpaceOnUse">
<stop stop-color="#57328A"/>
<stop offset="1" stop-color="#AE5EA1"/>
</linearGradient>
<linearGradient id="paint3_linear" x1="11.2603" y1="8.03497" x2="11.2603" y2="52.0114" gradientUnits="userSpaceOnUse">
<stop stop-color="#8577B5"/>
<stop offset="1" stop-color="#B3ABD5"/>
</linearGradient>
<linearGradient id="paint4_linear" x1="29.5741" y1="10.5367" x2="29.5741" y2="21.092" gradientUnits="userSpaceOnUse">
<stop stop-color="#8577B5"/>
<stop offset="1" stop-color="#B3ABD5"/>
</linearGradient>
<linearGradient id="paint5_linear" x1="26.5705" y1="54.0069" x2="6.15672" y2="54.0069" gradientUnits="userSpaceOnUse">
<stop stop-color="#57328A"/>
<stop offset="1" stop-color="#AE5EA1"/>
</linearGradient>
<linearGradient id="paint6_linear" x1="24.4707" y1="30.0921" x2="24.4707" y2="65.3554" gradientUnits="userSpaceOnUse">
<stop stop-color="#8577B5"/>
<stop offset="1" stop-color="#B3ABD5"/>
</linearGradient>
<linearGradient id="paint7_linear" x1="23.755" y1="40.4583" x2="23.755" y2="52.6586" gradientUnits="userSpaceOnUse">
<stop stop-color="#57328A"/>
<stop offset="1" stop-color="#AE5EA1"/>
</linearGradient>
<linearGradient id="paint8_linear" x1="19.4846" y1="36.2158" x2="16.297" y2="41.4783" gradientUnits="userSpaceOnUse">
<stop stop-color="#57328A"/>
<stop offset="1" stop-color="#AE5EA1"/>
</linearGradient>
<linearGradient id="paint9_linear" x1="26.8313" y1="26.6629" x2="20.7194" y2="36.9053" gradientUnits="userSpaceOnUse">
<stop stop-color="#57328A"/>
<stop offset="1" stop-color="#AE5EA1"/>
</linearGradient>
</defs>
</svg>

