<svg width="151" height="71" viewBox="0 0 151 71" fill="none" xmlns="http://www.w3.org/2000/svg">
<path d="M128.683 31.903V28.9836H120.768V15.1977H117.362V31.9354H128.683V31.903ZM109.707 26.194H105.361L107.566 20.0958L109.707 26.194ZM115.222 31.903L108.831 15.1653H106.172L99.8138 31.903H103.382L104.452 28.9512H110.648L111.686 31.903H115.222ZM98.3865 31.903V28.9836H90.2772V24.929H97.1539V22.0096H90.2772V18.0847H98.3865V15.1653H86.8712V31.903H98.3865ZM79.9296 20.2904C79.9296 21.5879 78.9565 22.4961 77.4644 22.4961H74.2531V18.0847H77.4644C78.9565 18.0847 79.9296 19.0253 79.9296 20.2904ZM84.0492 31.903L80.1567 24.7019C81.8434 24.118 83.3356 22.6583 83.3356 20.3228C83.3356 17.5332 81.2271 15.1977 77.659 15.1977H70.8147V31.9354H74.2206V25.2533H76.6859L80.0918 31.9354H84.0492V31.903Z" fill="black"/>
<path d="M151 55.3228V52.4034H142.339V48.3487H149.702V45.4294H142.339V41.5044H151V38.5851H138.706V55.3228H151ZM135.268 50.3923C135.268 48.9002 134.814 47.7 133.841 46.8566C133.062 46.2079 131.992 45.7862 130.272 45.5591L128.067 45.2672C127.321 45.1699 126.704 44.9104 126.348 44.6184C125.958 44.2941 125.796 43.8399 125.796 43.4182C125.796 42.2829 126.737 41.3098 128.683 41.3098C129.916 41.3098 131.343 41.4396 132.511 42.4451L134.814 40.4016C133.224 39.0068 131.343 38.4553 128.78 38.4553C124.758 38.4553 122.293 40.5313 122.293 43.5156C122.293 44.9104 122.747 46.0132 123.623 46.7917C124.466 47.5054 125.634 47.9595 127.256 48.1866L129.526 48.4785C130.402 48.6082 130.824 48.7704 131.181 49.0624C131.57 49.3867 131.765 49.8733 131.765 50.4572C131.765 51.7871 130.597 52.5332 128.456 52.5332C126.737 52.5332 125.115 52.1764 123.947 51.1384L121.579 53.2468C123.428 54.9011 125.569 55.4525 128.391 55.4525C132.251 55.485 135.268 53.636 135.268 50.3923ZM119.146 49.6138V38.6175H115.513V49.4841C115.513 51.3979 114.216 52.5656 112.27 52.5656C110.291 52.5656 109.058 51.4303 109.058 49.4841V38.6175H105.425V49.6138C105.425 53.1495 108.475 55.485 112.302 55.485C116.097 55.485 119.146 53.1495 119.146 49.6138ZM98.3216 46.9864C98.3216 50.1977 98.127 50.9762 97.4133 51.6898C96.8943 52.2412 96.0834 52.598 95.0778 52.598C94.0723 52.598 93.2289 52.2412 92.7099 51.6898C91.9963 50.9762 91.8341 50.1977 91.8341 46.9864C91.8341 43.7751 92.0287 42.9966 92.7099 42.2829C93.2289 41.7315 94.0723 41.3747 95.0778 41.3747C96.0834 41.3747 96.8943 41.7315 97.4133 42.2829C98.127 42.9966 98.3216 43.7751 98.3216 46.9864ZM101.987 46.9864C101.987 44.0994 102.019 42.0234 100.138 40.3043C98.8406 39.1365 97.2187 38.4878 95.1103 38.4878C93.0019 38.4878 91.3475 39.1365 90.05 40.3043C88.1687 41.991 88.2011 44.0994 88.2011 46.9864C88.2011 49.8733 88.1362 51.9817 90.05 53.6685C91.3475 54.8362 93.0019 55.485 95.1103 55.485C97.2187 55.485 98.8406 54.8362 100.138 53.6685C101.987 51.9493 101.987 49.8733 101.987 46.9864ZM84.4708 55.3228V38.5851H80.8378V45.4294H74.5125V38.5851H70.8795V55.3228H74.5125V48.3163H80.8378V55.3228H84.4708Z" fill="black"/>
<path fill-rule="evenodd" clip-rule="evenodd" d="M35.1335 1.28221L47.2326 8.28869L59.3318 15.2952C61.57 16.5927 62.8351 18.7984 62.8351 21.361V35.3415V49.2896C62.8351 51.8522 61.57 54.0579 59.3318 55.3554L47.2326 62.3619L35.1335 69.336C32.8953 70.6335 30.3652 70.6335 28.127 69.336L16.0278 62.3295L3.92866 55.323C1.69048 54.0579 0.425415 51.8522 0.425415 49.2896V35.3091V21.3285C0.425415 18.766 1.69048 16.5602 3.92866 15.2627L16.0278 8.25626L28.1594 1.28221C30.3652 -0.0152924 32.9277 -0.0152924 35.1335 1.28221Z" fill="#E30613"/>
<path fill-rule="evenodd" clip-rule="evenodd" d="M14.7304 26.0967V30.7353C14.7304 31.1245 15.0547 31.4489 15.444 31.4489H21.7369C22.1261 31.4489 22.4505 31.1245 22.4505 30.7353V22.4637C22.4505 22.2042 22.3207 21.9771 22.0937 21.8474C21.8666 21.7176 21.6071 21.7176 21.38 21.8798L14.8277 25.9021C14.7628 25.9669 14.7304 26.0318 14.7304 26.0967ZM48.4004 51.3979V38.2283H40.7776V57.561C40.7776 58.0151 40.5506 58.4044 40.1289 58.599L36.3337 60.5128C35.5876 60.9021 34.7767 60.8372 34.0631 60.4155C33.3495 59.9938 32.9602 59.2478 32.9602 58.4368V12.3757C32.9602 11.4998 33.3819 10.7538 34.1604 10.3321C34.9065 9.91041 35.7823 9.91041 36.4959 10.3645L40.7776 12.9595V32.0976H48.4004V19.2524C48.4004 18.7983 48.6599 18.409 49.0492 18.2144C49.4709 18.0198 49.925 18.0522 50.2818 18.3441L55.2447 22.2042C55.5367 22.4313 55.6988 22.7556 55.6988 23.1125V47.6352C55.6988 48.0244 55.5367 48.3488 55.2447 48.5758L50.3142 52.3386C49.9574 52.5981 49.5033 52.663 49.0816 52.4683C48.6599 52.2413 48.4004 51.852 48.4004 51.3979ZM8.82675 21.3933L25.8564 10.8511C26.6025 10.397 27.4458 10.3645 28.2243 10.7862C28.9704 11.2079 29.4245 11.954 29.4245 12.8298V36.1199C29.4245 37.4174 28.3865 38.4554 27.089 38.4554H22.6775L29.3272 54.739C29.3921 54.9011 29.4245 55.0309 29.4245 55.1931V58.3071C29.4245 58.9883 29.1001 59.5721 28.5163 59.8965C27.9324 60.2533 27.2837 60.2533 26.6998 59.9614L23.1317 58.08C22.8722 57.9503 22.71 57.7556 22.5802 57.4961L14.7952 38.4554V51.7547C14.7952 52.0142 14.6655 52.2413 14.4384 52.371C14.2114 52.5008 13.9519 52.4683 13.7248 52.3386L7.72388 48.2515V38.4554V23.372C7.72388 22.561 8.14556 21.8474 8.82675 21.3933Z" fill="white"/>
</svg>

