<svg xmlns="http://www.w3.org/2000/svg" width="106" height="60" viewBox="0 0 106 60">
  <defs>
    <style>
      .cls-1 {
        fill: #ff9021;
        fill-rule: evenodd;
      }
    </style>
  </defs>
  <path id="icon_001.svg" class="cls-1" d="M449.54,4264.35a5.024,5.024,0,0,0-1.261-3.61,4.161,4.161,0,0,0-3.2-1.31,6,6,0,0,0-4.464,1.69v0.08a4.262,4.262,0,0,1,2.863,1.18,3.594,3.594,0,0,1,1.141,2.67,3.218,3.218,0,0,1-1.081,2.53,3.8,3.8,0,0,1-2.642.97,4.23,4.23,0,0,1-2.7-.9,3.143,3.143,0,0,1-1.161-2.56q0-2.865,3.262-5.32a12.4,12.4,0,0,1,7.646-2.45,9.88,9.88,0,0,1,5.925,1.85,5.749,5.749,0,0,1,2.562,4.9,7.057,7.057,0,0,1-1.581,4.34,15.477,15.477,0,0,1-3.583,3.43q-2,1.365-4.724,3.28a29.443,29.443,0,0,0-4.2,3.43l-2.1,2.13h13.531l-1.8,5.6H433.467l0.16-1.06,10.008-10.32Q449.539,4268.72,449.54,4264.35Zm22.658,12.59a5.5,5.5,0,0,0-1.382-4.03,4.961,4.961,0,0,0-3.682-1.41,8.537,8.537,0,0,0-4.864,1.83l-0.561-.28,4.544-15.15h13.971l-0.9,5.31h-13.11l-2.542,8.19h0.08a12.2,12.2,0,0,1,7.226-2.79,7.946,7.946,0,0,1,5.724,2.15,7.238,7.238,0,0,1,2.222,5.52,8.616,8.616,0,0,1-2.1,5.85,12.554,12.554,0,0,1-5.144,3.61,17.716,17.716,0,0,1-6.305,1.14,9.34,9.34,0,0,1-5.244-1.3,3.833,3.833,0,0,1-1.982-3.23,3.755,3.755,0,0,1,1.141-2.94,3.846,3.846,0,0,1,2.642-1.02,3.514,3.514,0,0,1,2.522.98,3.212,3.212,0,0,1,1.021,2.39,3.391,3.391,0,0,1-.86,2.35,5.78,5.78,0,0,1-2,1.47v0.08a9.269,9.269,0,0,0,2.082.26,6.775,6.775,0,0,0,5.284-2.61A9.358,9.358,0,0,0,472.2,4276.94Zm-47.87,4.7s6.818,5.71,1.8,13.59C426.126,4295.23,419.918,4288.85,424.328,4281.64Zm0.654,14.37a12.694,12.694,0,0,1,3.546,6.6l-1.922.38a10.806,10.806,0,0,0-3.516-6.06c-2.9.54-8.088,0.71-11.728-3.7C411.363,4293.23,419.271,4289.27,424.982,4296.01Zm-6.745-6s-7.478,2.87-12.1-2.73C406.137,4287.28,413.25,4283.73,418.237,4290.01Zm-3.641-6.25s-7.981-.46-9.6-7.46C405,4276.3,412.961,4275.99,414.6,4283.76Zm-1.728-8.93s-7.05-1.16-7.765-7.57C405.1,4267.26,412.207,4267.73,412.868,4274.83Zm-3.882-17.73s5.877,3.75,2.808,10.31C411.794,4267.41,406.314,4263.08,408.986,4257.1Zm3.747-6.67s4.825,3.09,2.3,8.47C415.037,4258.9,410.543,4255.34,412.733,4250.43Zm3.857,0.75s-0.785-4.5,3.247-6.49A5.557,5.557,0,0,1,416.59,4251.18Zm3.868,25.08a9.374,9.374,0,0,1-1.989,12.26S414.788,4281.48,420.458,4276.26Zm-1.372-6.99a8.541,8.541,0,0,1-4.631,10.17S412.983,4272.55,419.086,4269.27Zm-7.008,1.58s0.692-6.52,7-7.82A8.191,8.191,0,0,1,412.078,4270.85Zm1.736-8.23s1.61-6.15,7.806-6.56A8.037,8.037,0,0,1,413.814,4262.62Zm2.882-8.82s2.528-5.08,7.952-4.39A7.255,7.255,0,0,1,416.7,4253.8Zm4.437-6.32s2.526-5.09,7.953-4.4A7.26,7.26,0,0,1,421.133,4247.48Zm68.724,47.76c-5.02-7.88,1.8-13.6,1.8-13.6C496.066,4288.85,489.857,4295.24,489.857,4295.24Zm14.764-2.01c-3.64,4.41-8.828,4.24-11.729,3.7a10.813,10.813,0,0,0-3.517,6.06l-1.921-.38a12.731,12.731,0,0,1,3.545-6.6C496.714,4289.27,504.621,4293.23,504.621,4293.23Zm5.227-5.94c-4.621,5.6-12.1,2.72-12.1,2.72C502.735,4283.73,509.848,4287.29,509.848,4287.29Zm1.139-10.99c-1.615,7-9.6,7.46-9.6,7.46C503.024,4275.99,510.988,4276.3,510.987,4276.3Zm-0.105-9.04c-0.716,6.41-7.766,7.57-7.766,7.57C503.778,4267.74,510.882,4267.26,510.882,4267.26Zm-6.691.15c-3.071-6.56,2.809-10.31,2.809-10.31C509.672,4263.08,504.191,4267.41,504.191,4267.41Zm-3.243-8.51a6.615,6.615,0,0,1,2.3-8.47C505.443,4255.34,500.948,4258.9,500.948,4258.9Zm-4.8-14.21c4.032,1.99,3.248,6.49,3.248,6.49A5.556,5.556,0,0,1,496.147,4244.69Zm1.369,43.83a9.374,9.374,0,0,1-1.99-12.26C501.2,4281.48,497.516,4288.52,497.516,4288.52Zm4.014-9.07a8.553,8.553,0,0,1-4.631-10.18C503,4272.55,501.529,4279.45,501.53,4279.45Zm-4.62-16.42c6.3,1.3,7,7.82,7,7.82A8.189,8.189,0,0,1,496.91,4263.03Zm-2.547-6.97c6.2,0.41,7.807,6.56,7.807,6.56A8.04,8.04,0,0,1,494.363,4256.06Zm-3.028-6.65c5.426-.69,7.953,4.39,7.953,4.39A7.257,7.257,0,0,1,491.335,4249.41Zm-4.437-6.33c5.427-.7,7.953,4.39,7.953,4.39A7.257,7.257,0,0,1,486.9,4243.08Z" transform="translate(-405 -4243)"/>
</svg>

