<svg xmlns="http://www.w3.org/2000/svg" width="60" height="60" viewBox="0 0 60 60">
  <defs>
    <style>
      .cls-1 {
        fill: #aa240a;
        fill-rule: evenodd;
      }
    </style>
  </defs>
  <path id="icon_03.svg" class="cls-1" d="M1133.62,949.987h-13.27a1.351,1.351,0,0,0-1.35,1.358v57.315a1.351,1.351,0,0,0,1.35,1.35h13.27a1.359,1.359,0,0,0,1.36-1.35V951.345A1.36,1.36,0,0,0,1133.62,949.987Zm-1.36,57.313h-10.55V952.7h10.55v54.6Zm-5.28-5.57a1.353,1.353,0,0,0,1.36-1.35V959.624a1.355,1.355,0,1,0-2.71,0v40.756A1.351,1.351,0,0,0,1126.98,1001.73Zm-23.7-48.889h-4.94a1.357,1.357,0,0,0,0,2.714h4.94a7.253,7.253,0,0,1,0,14.506h-1.66l1.51-1.513a1.358,1.358,0,1,0-1.92-1.92l-3.83,3.83a1.358,1.358,0,0,0,0,1.92l3.83,3.83a1.358,1.358,0,1,0,1.92-1.92l-1.51-1.512h1.66A9.968,9.968,0,1,0,1103.28,952.841Zm0,30.685h-4.94a1.357,1.357,0,0,0,0,2.714h4.94a7.255,7.255,0,0,1,0,14.51h-1.66l1.51-1.517a1.358,1.358,0,1,0-1.92-1.92l-3.83,3.827a1.358,1.358,0,0,0,0,1.92l3.83,3.83a1.352,1.352,0,0,0,1.92,0,1.358,1.358,0,0,0,0-1.92l-1.51-1.51h1.66A9.967,9.967,0,1,0,1103.28,983.526Zm40.9-25.055a1.961,1.961,0,1,0-1.95-1.96A1.956,1.956,0,0,0,1144.18,958.471Zm8.73,6.9a1.961,1.961,0,1,0-1.95-1.961A1.957,1.957,0,0,0,1152.91,965.372Zm0.91-10.257a1.961,1.961,0,1,0-1.96-1.961A1.963,1.963,0,0,0,1153.82,955.115Zm-9.61,13.077a1.96,1.96,0,1,0-1.96,1.96A1.963,1.963,0,0,0,1144.21,968.192Zm7.44,7.66a1.96,1.96,0,1,0-1.96,1.96A1.963,1.963,0,0,0,1151.65,975.852Zm-7.16,9.182a1.961,1.961,0,1,0,1.96,1.96A1.963,1.963,0,0,0,1144.49,985.034Zm6.41,8.279a1.961,1.961,0,1,0,1.96,1.961A1.963,1.963,0,0,0,1150.9,993.313Zm-7.44,6.827a1.96,1.96,0,1,0,1.96,1.96A1.963,1.963,0,0,0,1143.46,1000.14Zm11.57,2.33a1.96,1.96,0,1,0,1.96,1.96A1.957,1.957,0,0,0,1155.03,1002.47Zm1.35-17.173a1.96,1.96,0,1,0-1.96,1.961A1.963,1.963,0,0,0,1156.38,985.3Z" transform="translate(-1097 -950)"/>
</svg>

