<svg xmlns="http://www.w3.org/2000/svg" width="66" height="60" viewBox="0 0 66 60">
  <defs>
    <style>
      .cls-1 {
        fill: #ff9021;
        fill-rule: evenodd;
      }
    </style>
  </defs>
  <path id="icon_002.svg" class="cls-1" d="M824.692,4244.31a1.019,1.019,0,0,0-.758-0.3c-0.819,0-20.2.33-29.89,9.94a22.449,22.449,0,0,0-3.21,4.06c-0.282-.31-0.573-0.62-0.873-0.92-9.7-9.61-29.082-9.93-29.9-9.94a1,1,0,0,0-.761.31,1.04,1.04,0,0,0-.311.75c0.01,0.81.339,20.04,10.031,29.65,6.925,6.87,17.66,7.91,23.567,7.91,1.722,0,3.022-.09,3.7-0.15l4.474,4.44a1.065,1.065,0,0,0,1.482-.01,1.042,1.042,0,0,0,.013-1.47l-4.474-4.44c0.037-.43.086-1.09,0.117-1.96,5.249-.71,12.162-2.59,17.069-7.47,9.694-9.62,10.022-28.83,10.032-29.65A1.039,1.039,0,0,0,824.692,4244.31Zm-37.379,29.44,0.706-7.66a1.058,1.058,0,0,0-2.107-.19l-0.545,5.92-2.538-2.51,0.708-7.67a1.062,1.062,0,0,0-2.115-.19l-0.545,5.92-3.289-3.26,0.706-7.66a1.057,1.057,0,0,0-2.106-.19l-0.547,5.92-5.878-5.83a1.056,1.056,0,0,0-1.028-.28,1.037,1.037,0,0,0-.755.75,1.051,1.051,0,0,0,.288,1.02l5.878,5.82-5.973.55a1.046,1.046,0,1,0,.094,2.09h0.1l7.727-.7,3.289,3.27-5.97.52a1.051,1.051,0,1,0,.1,2.1h0.1l7.729-.7,2.538,2.52-5.974.54a1.051,1.051,0,0,0-1.01,1.09,1.067,1.067,0,0,0,1.106,1.01h0.1l7.727-.7,8.46,8.38c-4.929.16-16.724-.27-23.763-7.25-7.807-7.75-9.142-22.89-9.364-27.09,4.235,0.22,19.5,1.53,27.314,9.29,7.039,6.98,7.47,18.68,7.313,23.56Zm26.164-.52c-4.4,4.37-10.67,6.13-15.545,6.83a46.98,46.98,0,0,0-.657-7.52h0.01a1.049,1.049,0,0,0,.747-0.31l0.146-.14,7.727,0.7H806a1.051,1.051,0,1,0,.1-2.1l-5.974-.54,2.538-2.52,7.737,0.71h0.1a1.046,1.046,0,1,0,.1-2.09l-5.973-.54,3.287-3.26,7.729,0.7h0.1a1.066,1.066,0,0,0,1.1-1.01,1.046,1.046,0,0,0-1.011-1.09l-5.973-.54,5.878-5.83a1.051,1.051,0,0,0,.288-1.02,1.037,1.037,0,0,0-.755-0.75,1.056,1.056,0,0,0-1.028.28l-5.878,5.83-0.547-5.92a1.058,1.058,0,0,0-2.107.19l0.707,7.66-3.289,3.26-0.547-5.91a1.062,1.062,0,0,0-2.115.19l0.707,7.67-2.538,2.51-0.546-5.92a1.057,1.057,0,0,0-2.106.19l0.578,6.27a28.377,28.377,0,0,0-4.31-9.44,20.382,20.382,0,0,1,3.293-4.34c7.809-7.74,23.072-9.06,27.31-9.28-0.221,4.2-1.555,19.32-9.368,27.08h0ZM784.6,4294.56a1.05,1.05,0,1,0,0-2.1H778.25a1.054,1.054,0,0,0-1.058,1.05v9.44a1.054,1.054,0,0,0,1.058,1.05H784.6a1.05,1.05,0,1,0,0-2.1h-5.288v-3.14h2.115a1.05,1.05,0,1,0,0-2.1h-2.115v-2.1H784.6Zm10.575,0a1.05,1.05,0,1,0,0-2.1h-6.345a1.054,1.054,0,0,0-1.058,1.05v9.44a1.054,1.054,0,0,0,1.058,1.05h6.345a1.05,1.05,0,1,0,0-2.1h-5.288v-7.34h5.288Zm10.575-2.1H799.4a1.054,1.054,0,0,0-1.058,1.05v9.44A1.054,1.054,0,0,0,799.4,4304h6.345a1.053,1.053,0,0,0,1.057-1.05v-9.44A1.053,1.053,0,0,0,805.745,4292.46Zm-1.058,9.44h-4.23v-7.34h4.23v7.34Z" transform="translate(-759 -4244)"/>
</svg>

