<svg xmlns="http://www.w3.org/2000/svg" width="64" height="59.999" viewBox="0 0 64 59.999">
  <defs>
    <style>
      .cls-1 {
        fill: #aa240a;
        fill-rule: evenodd;
      }
    </style>
  </defs>
  <path id="icon_01.svg" class="cls-1" d="M485.9,984.033l3.292,3.293a1,1,0,0,1-.707,1.706h-9a1,1,0,0,1-.707-0.293l-3.706-3.706h-0.636a21.995,21.995,0,1,1,0-2h0.636l3.706-3.707a1,1,0,0,1,.707-0.292h9a1,1,0,0,1,.707,1.706Zm-33.407-3a3,3,0,0,1,2.815,2h17.13a20,20,0,1,0,0,2H455.3A2.994,2.994,0,1,1,452.489,981.034Zm27.408,6h6.171l-2-2H477.9Zm0-6-2,2h6.17l2-2H479.9Zm-40.406,14h2v2h-2v-2Zm0-23.994h2v2h-2v-2Zm14-3h-2v-2h2v2Zm12,5h-2v-2h2v2Zm-30.994,10h2v2h-2v-2Zm19,19h-2v-2h2v2Zm12-5h-2v-2h2v2Zm14-21.994h2v2h-2v-2Zm0-4h2v2h-2v-2Zm-3.292-5.292a1,1,0,0,1-1.414,0l-1.293-1.293-1.947,1.947a25.76,25.76,0,0,1,5.913,10.359l-1.919.558a24,24,0,1,0,0,13.438l1.919,0.558a26,26,0,0,1-50.956-7.279,25.865,25.865,0,0,1,6.949-17.631l-1.95-1.95-1.293,1.293a1,1,0,0,1-1.414,0l-3-3a1,1,0,0,1,0-1.414l4-4a1,1,0,0,1,1.414,0l3,3a1,1,0,0,1,0,1.413l-1.293,1.293,1.95,1.95a25.882,25.882,0,0,1,14.633-6.762V957.04h-2a1,1,0,0,1-1-1v-5a1,1,0,0,1,1-1h10a1,1,0,0,1,1,1v5a1,1,0,0,1-1,1h-2v1.2a26.121,26.121,0,0,1,14.632,6.753l1.951-1.951-1.293-1.293a1,1,0,0,1,0-1.413l3-3a1,1,0,0,1,1.414,0l4,4a1,1,0,0,1,0,1.414Zm-45.7-6.291-2.585,2.585,1.585,1.586,2.586-2.586Zm26-4.413v-3h-8v3h2a1,1,0,0,1,1,1v2.05c0.334-.012.662-0.05,1-0.05s0.666,0.028,1,.041V956.04a1,1,0,0,1,1-1h2Zm18,4.413-1.585,1.585,2.585,2.586,1.586-1.586Zm7,33.577h-2v-2h2v2Zm0,4h-2v-2h2v2Z" transform="translate(-425.5 -950.031)"/>
</svg>

