<svg width="129" height="66" viewBox="0 0 129 66" fill="none" xmlns="http://www.w3.org/2000/svg">
<path fill-rule="evenodd" clip-rule="evenodd" d="M0.339478 30.717V26.9536H4.1029H22.8702V30.717H4.1029V36.3497H19.1067H22.8702V40.1131V45.7209V49.4594H19.1067H0.339478V45.7209H19.1067V40.0882H4.1029H0.339478V36.3248V30.717ZM26.6087 26.9536V30.717H35.9798V49.4594H39.7432V30.6921H49.1144V26.9287H39.7432H35.9798H26.6087V26.9536ZM71.6202 36.3497H67.782H63.6447H56.6163V30.717H71.6202V36.3497ZM52.8529 30.717V36.3497V40.1131V49.4594H56.6163V40.0882H65.813L71.2214 49.4594H75.3836L69.9752 40.0882H71.6451H75.4085V36.3248V30.6921V26.9287H71.6202H56.6163H52.8529V30.717ZM82.8855 45.7209V30.717H97.8893V45.7209H82.8855ZM79.1221 30.717V45.7209V49.4594H82.8855H97.8893H101.653V45.7209V30.717V26.9536H97.8893H82.8855H79.1221V30.717ZM30.3222 19.6261V4.62231H45.3261V19.6261H30.3222ZM26.5588 4.62231V19.6261V23.3896H30.3222H45.3261H49.0895V19.6261V4.62231V0.858887H45.3261H30.3222H26.5588V4.62231ZM4.1029 23.3646V5.71893L20.1037 23.3896H22.8203V0.858887H19.0569V16.6603L4.72598 0.858887H0.339478V23.3646H4.1029ZM82.7609 10.2301V4.62231H97.7896V10.255H82.7609V10.2301ZM101.528 13.9935V10.2301V4.62231V0.858887H97.7896H82.7858H79.0224V4.62231V10.255V14.0184V23.3896H82.7858V13.9935H97.7896V23.3646H101.528V13.9935ZM106.039 36.0506V39.814H109.803H115.435V49.4594H119.199V39.7891H124.831H128.595V36.0257V26.9287H124.831V36.0257H119.199H115.435H109.803V26.9287H106.039V36.0506ZM52.8031 0.858887V15.2147L60.9779 23.4145H67.134L75.3088 15.2147V0.858887H71.5454V13.6695L65.5887 19.6511H62.5231L56.5665 13.6695V0.858887H52.8031ZM112.993 60.0767C113.491 58.9302 114.289 58.3071 115.61 58.3071C117.205 58.3071 118.102 59.329 118.102 60.949V65.6097H117.554V61.2232C117.554 59.8773 117.105 58.8056 115.485 58.8056C114.563 58.8056 113.84 59.2293 113.417 59.977C113.142 60.4505 113.018 60.9988 113.018 61.921V65.5847H112.469V58.4816H113.018V60.0767H112.993ZM105.217 62.0705C105.217 64.0644 106.288 65.3355 107.958 65.3355C109.603 65.3355 110.65 64.0644 110.65 62.0955C110.65 60.0767 109.578 58.7807 107.958 58.7807C106.313 58.8056 105.217 60.1265 105.217 62.0705ZM111.223 62.1204C111.223 64.3884 109.927 65.834 107.933 65.834C105.915 65.834 104.644 64.3635 104.644 62.0705C104.644 59.8025 105.964 58.3071 107.958 58.3071C109.952 58.3071 111.223 59.8025 111.223 62.1204ZM103.323 65.6097H102.774V58.5065H103.323V65.6097ZM103.323 57.1607H102.774V55.7649H103.323V57.1607ZM101.703 59.005H100.182V63.8152C100.182 64.538 100.157 65.1361 101.129 65.1361C101.279 65.1361 101.453 65.1112 101.703 65.0863V65.6097C101.404 65.6595 101.279 65.6595 101.03 65.6595C99.5343 65.6595 99.609 64.7373 99.609 63.5909V59.005H98.2881V58.5314H99.609V56.2883H100.157V58.5314H101.678V59.005H101.703ZM94.8736 65.834C92.7053 65.834 91.6087 64.1392 91.6087 62.0955C91.6087 59.8025 92.9047 58.3071 94.9235 58.3071C96.5684 58.3071 97.6401 59.2044 97.8146 60.6998H97.2413C97.0918 59.5533 96.2195 58.7807 94.9235 58.7807C93.2287 58.7807 92.157 60.0767 92.157 62.0705C92.157 64.0395 93.2287 65.3604 94.8238 65.3604C96.1696 65.3604 97.1167 64.513 97.3161 63.1173H97.8644C97.665 64.837 96.5684 65.834 94.8736 65.834ZM90.2628 65.6097H89.7394V64.1143C89.2908 65.161 88.4683 65.809 87.1972 65.809C85.5024 65.809 84.68 64.7124 84.68 63.0675V58.5065H85.2283V62.9429C85.2283 64.214 85.6769 65.3106 87.2969 65.3106C88.9917 65.3106 89.7145 63.8401 89.7145 62.3447V58.4816H90.2628V65.6097ZM84.1566 59.0299H83.9572C83.1597 59.0299 82.4867 59.3539 82.0132 59.977C81.4399 60.7496 81.415 61.6219 81.415 62.5441V65.6097H80.8418V58.5065H81.3901V60.3758C81.9135 58.9801 82.736 58.4567 84.1566 58.4567V59.0299ZM79.8698 59.005H78.3494V63.8152C78.3494 64.538 78.3245 65.1361 79.2965 65.1361C79.4461 65.1361 79.6205 65.1112 79.8698 65.0863V65.6097C79.5707 65.6595 79.4461 65.6595 79.1968 65.6595C77.7014 65.6595 77.7762 64.7373 77.7762 63.5909V59.005H76.4553V58.5314H77.7762V56.2883H78.3245V58.5314H79.8448V59.005H79.8698ZM75.1842 60.5751C75.0845 59.2791 74.2869 58.8056 72.9909 58.8056C71.8195 58.8056 71.0718 59.329 71.0718 60.2013C71.0718 61.2979 72.1685 61.4225 73.3399 61.6967C74.4863 61.9709 75.9817 62.2699 75.9817 63.7404C75.9817 64.9866 74.8602 65.834 73.1903 65.834C71.3958 65.834 70.2992 64.8869 70.2992 63.217H70.8475C70.8475 64.6376 71.7198 65.3106 73.2152 65.3106C74.5362 65.3106 75.4334 64.6875 75.4334 63.7404C75.4334 62.5939 74.0876 62.3946 73.2402 62.1952C72.0937 61.921 70.5235 61.7465 70.5235 60.2262C70.5235 59.0299 71.4955 58.3071 73.1156 58.3071C74.7106 58.3071 75.7574 59.0548 75.7824 60.5751H75.1842ZM63.9687 60.0767C64.4672 58.9302 65.2647 58.3071 66.5856 58.3071C68.1807 58.3071 69.078 59.329 69.078 60.949V65.6097H68.5297V61.2232C68.5297 59.8773 68.081 58.8056 66.461 58.8056C65.5389 58.8056 64.8161 59.2293 64.3924 59.977C64.1182 60.4505 63.9936 60.9988 63.9936 61.921V65.5847H63.4453V58.4816H63.9936V60.0767H63.9687ZM56.1926 62.0705C56.1926 64.0644 57.2643 65.3355 58.9342 65.3355C60.5791 65.3355 61.6259 64.0644 61.6259 62.0955C61.6259 60.0767 60.5542 58.7807 58.9342 58.7807C57.2893 58.8056 56.1926 60.1265 56.1926 62.0705ZM62.1991 62.1204C62.1991 64.3884 60.9031 65.834 58.9093 65.834C56.8905 65.834 55.6194 64.3635 55.6194 62.0705C55.6194 59.8025 56.9403 58.3071 58.9342 58.3071C60.9031 58.3071 62.1991 59.8025 62.1991 62.1204ZM51.7563 65.834C49.5879 65.834 48.4913 64.1392 48.4913 62.0955C48.4913 59.8025 49.7873 58.3071 51.8061 58.3071C53.4511 58.3071 54.5228 59.2044 54.6972 60.6998H54.124C53.9744 59.5533 53.1021 58.7807 51.8061 58.7807C50.1113 58.7807 49.0396 60.0767 49.0396 62.0705C49.0396 64.0395 50.1113 65.3604 51.7064 65.3604C53.0523 65.3604 53.9994 64.513 54.1988 63.1173H54.7471C54.5477 64.837 53.4511 65.834 51.7563 65.834ZM38.2728 60.0767C38.7712 58.9302 39.5688 58.3071 40.8897 58.3071C42.4848 58.3071 43.382 59.329 43.382 60.949V65.6097H42.8337V61.2232C42.8337 59.8773 42.3851 58.8056 40.7651 58.8056C39.8429 58.8056 39.1202 59.2293 38.6965 59.977C38.4223 60.4505 38.2977 60.9988 38.2977 61.921V65.5847H37.7494V58.4816H38.2977V60.0767H38.2728ZM37.1761 59.0299H36.9767C36.1792 59.0299 35.5063 59.3539 35.0327 59.977C34.4595 60.7496 34.4346 61.6219 34.4346 62.5441V65.6097H33.8863V58.5065H34.4346V60.3758C34.958 58.9801 35.7804 58.4567 37.2011 58.4567V59.0299H37.1761ZM29.5994 58.8305C27.8548 58.8305 27.1071 60.1764 26.9576 61.6967H32.1416C32.1416 60.2511 31.3192 58.8305 29.5994 58.8305ZM29.5994 65.8589C27.6554 65.8589 26.3594 64.4133 26.3594 62.1453C26.3594 59.8773 27.6804 58.3321 29.5994 58.3321C31.7179 58.3321 32.7149 60.0518 32.7149 61.9958V62.1952H26.9576C26.9576 63.8401 27.7551 65.3853 29.6244 65.3853C30.9204 65.3853 31.8176 64.5878 32.0918 63.217H32.6401C32.3909 64.7623 31.2942 65.8589 29.5994 65.8589ZM19.2563 62.0955C19.2563 64.1143 20.2532 65.3604 21.8732 65.3604C23.5182 65.3604 24.54 64.0893 24.54 62.0705C24.54 60.4007 23.7425 58.7807 21.8732 58.7807C20.2781 58.7807 19.2563 60.0767 19.2563 62.0955ZM25.0883 65.6097H24.5649V63.8899C24.216 65.1361 23.1692 65.834 21.8732 65.834C19.9292 65.834 18.708 64.4133 18.708 62.0955C18.708 59.7776 19.9541 58.3071 21.8732 58.3071C23.1942 58.3071 24.1412 59.005 24.54 60.1515V55.74H25.0883V65.6097ZM11.7544 62.0705C11.7544 64.0644 12.8261 65.3355 14.4959 65.3355C16.1409 65.3355 17.1876 64.0644 17.1876 62.0955C17.1876 60.0767 16.1159 58.7807 14.4959 58.7807C12.851 58.8056 11.7544 60.1265 11.7544 62.0705ZM17.7858 62.1204C17.7858 64.3884 16.4898 65.834 14.4959 65.834C12.4771 65.834 11.206 64.3635 11.206 62.0705C11.206 59.8025 12.527 58.3071 14.5208 58.3071C16.4898 58.3071 17.7858 59.8025 17.7858 62.1204ZM9.88511 65.6097H9.31187V58.2324C9.31187 57.5844 9.33679 56.9613 9.38664 56.3133C9.21218 56.6871 9.11248 57.1108 8.93802 57.4847L5.44876 65.6346H4.87552L1.38626 57.5844C1.21179 57.1856 1.08718 56.7619 0.937637 56.3631C0.96256 57.0111 1.01241 57.6342 1.01241 58.2573V65.6346H0.439171V55.7649H1.26164C2.10903 57.7339 4.40198 63.0924 4.40198 63.0924C4.87552 64.2389 5.1746 65.0115 5.1746 65.0115C5.1746 65.0115 5.42383 64.3136 5.87245 63.2918C5.87245 63.2918 8.14047 57.9582 9.06264 55.7899H9.88511V65.6097Z" fill="black"/>
</svg>

