<svg xmlns="http://www.w3.org/2000/svg" width="63.97" height="60" viewBox="0 0 63.97 60">
  <defs>
    <style>
      .cls-1 {
        fill: #ff9021;
        fill-rule: evenodd;
      }
    </style>
  </defs>
  <path id="icon_003.svg" class="cls-1" d="M1097.05,4269.86h5.72a15.408,15.408,0,0,0,1.46,3.51l-4.05,4.06a1,1,0,0,0-.31.73,1.014,1.014,0,0,0,.31.73l4.37,4.39a1.038,1.038,0,0,0,1.46,0l4.06-4.06a14.8,14.8,0,0,0,3.49,1.45v5.74a1.037,1.037,0,0,0,1.03,1.04h6.19a1.046,1.046,0,0,0,1.04-1.04v-5.74a14.8,14.8,0,0,0,3.49-1.45l4.05,4.06a1.057,1.057,0,0,0,1.46,0l4.38-4.39a1,1,0,0,0,.3-0.73,0.988,0.988,0,0,0-.3-0.73l-4.05-4.06a15.377,15.377,0,0,0,1.45-3.51h5.73a1.029,1.029,0,0,0,1.03-1.03v-6.21a1.029,1.029,0,0,0-1.03-1.03h-5.73a15.193,15.193,0,0,0-1.45-3.51l4.05-4.06a1.046,1.046,0,0,0,.3-0.73,1.028,1.028,0,0,0-.3-0.73l-4.38-4.39a1.02,1.02,0,0,0-1.46,0l-4.05,4.06a15.259,15.259,0,0,0-3.49-1.46v-5.74a1.037,1.037,0,0,0-1.04-1.03h-6.19a1.029,1.029,0,0,0-1.03,1.03v5.74a15.259,15.259,0,0,0-3.49,1.46l-4.06-4.06a1.057,1.057,0,0,0-1.46,0l-4.37,4.39a1,1,0,0,0-.31.73,1.014,1.014,0,0,0,.31.73l4.05,4.06a15.223,15.223,0,0,0-1.46,3.51h-5.72a1.029,1.029,0,0,0-1.03,1.03v6.21A1.029,1.029,0,0,0,1097.05,4269.86Zm1.03-6.2h5.5a1.028,1.028,0,0,0,1.01-.82,13.352,13.352,0,0,1,1.81-4.36,1.044,1.044,0,0,0-.14-1.29l-3.9-3.9,2.92-2.93,3.9,3.91a1.03,1.03,0,0,0,1.28.14,13.413,13.413,0,0,1,4.35-1.82,1.019,1.019,0,0,0,.81-1.01v-5.51h4.13v5.51a1.029,1.029,0,0,0,.81,1.01,13.233,13.233,0,0,1,4.35,1.82,1.042,1.042,0,0,0,1.29-.14l3.89-3.91,2.92,2.93-3.89,3.9a1.031,1.031,0,0,0-.14,1.29,13.352,13.352,0,0,1,1.81,4.36,1.025,1.025,0,0,0,1,.82h5.51v4.13h-5.51a1.025,1.025,0,0,0-1,.82,13.352,13.352,0,0,1-1.81,4.36,1.045,1.045,0,0,0,.14,1.29l3.89,3.9-2.92,2.93-3.89-3.91a1.042,1.042,0,0,0-1.29-.14,13,13,0,0,1-4.35,1.81,1.046,1.046,0,0,0-.81,1.01v5.52h-4.13v-5.52a1.036,1.036,0,0,0-.81-1.01,13.088,13.088,0,0,1-4.35-1.81,1.03,1.03,0,0,0-1.28.14l-3.9,3.91-2.92-2.93,3.9-3.9a1.045,1.045,0,0,0,.14-1.29,13.442,13.442,0,0,1-1.81-4.36,1.028,1.028,0,0,0-1.01-.82h-5.5v-4.13Zm19.61,10.34a8.275,8.275,0,1,0-8.26-8.28A8.265,8.265,0,0,0,1117.69,4274Zm0-14.48a6.205,6.205,0,1,1-6.19,6.2A6.2,6.2,0,0,1,1117.69,4259.52Zm0,17.58a11.38,11.38,0,1,0-11.35-11.38A11.361,11.361,0,0,0,1117.69,4277.1Zm0-20.69a9.31,9.31,0,1,1-9.29,9.31A9.3,9.3,0,0,1,1117.69,4256.41Zm37.15,35.18v-8.28a1.029,1.029,0,0,0-1.03-1.03h-2.07V4274a1.029,1.029,0,0,0-1.03-1.03h-9.29a1.029,1.029,0,0,0-1.03,1.03v8.28h-5.16a1.029,1.029,0,0,0-1.03,1.03v8.28h-33.02a5.162,5.162,0,0,0-5.16,5.17v2.07a5.168,5.168,0,0,0,5.16,5.17h53.66a5.168,5.168,0,0,0,5.16-5.17v-2.07A5.162,5.162,0,0,0,1154.84,4291.59Zm-2.06,0h-7.23v-7.25h7.23v7.25Zm-10.32-16.56h7.22v7.25h-7.22v-7.25Zm-6.2,9.31h7.23v7.25h-7.23v-7.25Zm21.68,14.49a3.1,3.1,0,0,1-3.1,3.1h-53.66a3.1,3.1,0,0,1-3.1-3.1v-2.07a3.1,3.1,0,0,1,3.1-3.11h53.66a3.1,3.1,0,0,1,3.1,3.11v2.07Zm-29.93-4.14a3.105,3.105,0,1,0,3.09,3.1A3.1,3.1,0,0,0,1128.01,4294.69Zm0,4.14a1.035,1.035,0,1,1,1.03-1.04A1.037,1.037,0,0,1,1128.01,4298.83Zm-10.32-4.14a3.105,3.105,0,1,0,3.09,3.1A3.1,3.1,0,0,0,1117.69,4294.69Zm0,4.14a1.035,1.035,0,1,1,1.03-1.04A1.037,1.037,0,0,1,1117.69,4298.83Zm20.64-4.14a3.105,3.105,0,1,0,3.09,3.1A3.1,3.1,0,0,0,1138.33,4294.69Zm0,4.14a1.035,1.035,0,1,1,1.03-1.04A1.037,1.037,0,0,1,1138.33,4298.83Zm-30.96-4.14a3.105,3.105,0,1,0,3.09,3.1A3.1,3.1,0,0,0,1107.37,4294.69Zm0,4.14a1.035,1.035,0,1,1,1.03-1.04A1.037,1.037,0,0,1,1107.37,4298.83Zm41.28-4.14a3.105,3.105,0,1,0,3.09,3.1A3.1,3.1,0,0,0,1148.65,4294.69Zm0,4.14a1.035,1.035,0,1,1,1.03-1.04A1.037,1.037,0,0,1,1148.65,4298.83Z" transform="translate(-1096.03 -4244)"/>
</svg>

