<svg width="111" height="101" viewBox="0 0 111 101" fill="none" xmlns="http://www.w3.org/2000/svg">
<path fill-rule="evenodd" clip-rule="evenodd" d="M12.487 0.486328V68.4338C10.9996 75.6475 8.4711 78.4487 1.00952 78.1264V81.3986H22.8737V78.5726C22.2539 78.2503 21.6342 77.9529 21.0145 77.6306V22.8215L45.0353 43.5949V67.814H49.3734V37.1993L12.487 0.486328Z" fill="#333B8F"/>
<path fill-rule="evenodd" clip-rule="evenodd" d="M27.0135 31.1257C26.9887 34.745 26.9887 38.3642 26.9639 42.0082C25.5014 41.2646 23.9149 40.4713 22.2292 39.5789C22.254 35.5134 22.2788 31.4728 22.3283 27.4321C23.9892 28.746 25.551 29.9854 27.0135 31.1257Z" fill="#D7B46A"/>
<path fill-rule="evenodd" clip-rule="evenodd" d="M32.8886 35.7118C32.8886 38.8104 32.8886 41.9339 32.8638 45.0325C31.9218 44.5615 30.955 44.0658 29.9139 43.5204C29.9139 40.1491 29.9387 36.7777 29.9387 33.4312C31.0046 34.2492 31.9714 34.9929 32.8886 35.7118Z" fill="#D7B46A"/>
<path fill-rule="evenodd" clip-rule="evenodd" d="M37.5985 39.3807C37.5985 42.058 37.5985 44.76 37.5985 47.462C36.9044 47.115 36.1855 46.7184 35.4171 46.3465C35.4171 43.4462 35.4171 40.5706 35.4171 37.6951C36.1855 38.29 36.9044 38.8602 37.5985 39.3807Z" fill="#D7B46A"/>
<path fill-rule="evenodd" clip-rule="evenodd" d="M41.1682 42.2067C41.1682 44.5864 41.1929 46.9662 41.1929 49.346C40.6476 49.0733 40.1022 48.7758 39.5073 48.4783C39.5073 45.9498 39.5073 43.4213 39.4825 40.8928C40.0774 41.339 40.6476 41.7852 41.1682 42.2067Z" fill="#D7B46A"/>
<path fill-rule="evenodd" clip-rule="evenodd" d="M44.019 44.4127C44.019 46.5446 44.0438 48.6765 44.0438 50.8084C43.6224 50.5853 43.1761 50.3622 42.7051 50.1143C42.7051 47.8584 42.6804 45.6026 42.6804 43.3716C43.1266 43.7434 43.5728 44.0905 44.019 44.4127Z" fill="#D7B46A"/>
<path fill-rule="evenodd" clip-rule="evenodd" d="M26.9391 44.859C26.9143 48.5279 26.9143 52.2215 26.8896 55.9151C25.4022 55.6672 23.8157 55.3945 22.1052 55.097C22.13 50.9572 22.1548 46.867 22.2044 42.752C23.8901 43.4956 25.4518 44.2145 26.9391 44.859Z" fill="#D7B46A"/>
<path fill-rule="evenodd" clip-rule="evenodd" d="M32.8638 47.4618C32.8638 50.61 32.8638 53.7583 32.839 56.9065C31.897 56.733 30.9054 56.5842 29.8643 56.3859C29.8643 52.965 29.889 49.5441 29.889 46.1479C30.955 46.6437 31.9466 47.0652 32.8638 47.4618Z" fill="#D7B46A"/>
<path fill-rule="evenodd" clip-rule="evenodd" d="M37.5985 49.5692C37.5985 52.296 37.5985 55.0229 37.5985 57.7497C36.9044 57.6257 36.1607 57.5018 35.4171 57.353C35.4171 54.4279 35.4171 51.5028 35.4171 48.5776C36.1855 48.9495 36.9044 49.2717 37.5985 49.5692Z" fill="#D7B46A"/>
<path fill-rule="evenodd" clip-rule="evenodd" d="M41.1929 51.2051C41.1929 53.6097 41.1929 56.0142 41.2177 58.4188C40.6724 58.3196 40.127 58.2205 39.5321 58.1213C39.5321 55.568 39.5321 53.0147 39.5073 50.4614C40.1022 50.7093 40.6724 50.9572 41.1929 51.2051Z" fill="#D7B46A"/>
<path fill-rule="evenodd" clip-rule="evenodd" d="M44.0438 52.4693C44.0438 54.626 44.0686 56.7579 44.0686 58.9145C43.6471 58.8402 43.2009 58.7658 42.7299 58.6914C42.7299 56.4108 42.7051 54.155 42.7051 51.8992C43.1761 52.0727 43.5976 52.271 44.0438 52.4693Z" fill="#D7B46A"/>
<path fill-rule="evenodd" clip-rule="evenodd" d="M26.8648 59.1626C26.84 62.9058 26.84 66.6242 26.8152 70.3922C25.303 70.6649 23.7165 70.9623 21.9813 71.2846C22.0061 67.0952 22.0308 62.9058 22.0804 58.7412C23.7909 58.8899 25.3774 59.0387 26.8648 59.1626Z" fill="#D7B46A"/>
<path fill-rule="evenodd" clip-rule="evenodd" d="M32.8638 59.7326C32.8638 62.9057 32.8638 66.1283 32.839 69.3261C31.897 69.4996 30.9054 69.6731 29.8395 69.8467C29.8395 66.3762 29.8643 62.9057 29.8643 59.46C30.9302 59.5343 31.9218 59.6335 32.8638 59.7326Z" fill="#D7B46A"/>
<path fill-rule="evenodd" clip-rule="evenodd" d="M37.5985 60.1788C37.5985 62.9304 37.5985 65.682 37.5985 68.4584C36.9044 68.5824 36.1607 68.7063 35.3923 68.855C35.3923 65.8803 35.3923 62.9304 35.3923 59.9805C36.1855 60.0548 36.9044 60.1292 37.5985 60.1788Z" fill="#D7B46A"/>
<path fill-rule="evenodd" clip-rule="evenodd" d="M41.2178 60.5507C41.2178 62.9801 41.2426 65.4094 41.2426 67.8388C40.6972 67.9379 40.127 68.0371 39.5569 68.1362C39.5569 65.5334 39.5569 62.9553 39.5321 60.3772C40.127 60.4268 40.6724 60.5011 41.2178 60.5507Z" fill="#D7B46A"/>
<path fill-rule="evenodd" clip-rule="evenodd" d="M44.0685 60.8234C44.0685 62.9801 44.0933 65.1615 44.0933 67.3182C43.6471 67.3926 43.2009 67.4917 42.7547 67.5661C42.7547 65.2855 42.7299 62.9801 42.7299 60.6995C43.2009 60.749 43.6471 60.7738 44.0685 60.8234Z" fill="#D7B46A"/>
<path fill-rule="evenodd" clip-rule="evenodd" d="M98.6794 0.486328V68.4338C100.167 75.6475 102.695 78.4487 110.157 78.1264V81.3986H88.2927V78.5726C88.9124 78.2503 89.5321 77.9529 90.1519 77.6306V22.8215L66.131 43.5949V67.814H61.7929V37.1993L98.6794 0.486328Z" fill="#333B8F"/>
<path fill-rule="evenodd" clip-rule="evenodd" d="M84.1528 31.1257C84.1776 34.745 84.1776 38.3642 84.2024 42.0082C85.665 41.2646 87.2515 40.4713 88.9372 39.5789C88.9124 35.5134 88.8876 31.4728 88.838 27.4321C87.2019 28.746 85.6154 29.9854 84.1528 31.1257Z" fill="#D7B46A"/>
<path fill-rule="evenodd" clip-rule="evenodd" d="M78.2778 35.7118C78.2778 38.8104 78.2778 41.9339 78.3026 45.0325C79.2446 44.5615 80.2113 44.0658 81.2525 43.5204C81.2525 40.1491 81.2277 36.7777 81.2277 33.4312C80.1866 34.2492 79.195 34.9929 78.2778 35.7118Z" fill="#D7B46A"/>
<path fill-rule="evenodd" clip-rule="evenodd" d="M73.5678 39.3807C73.5678 42.058 73.5678 44.76 73.5678 47.462C74.2619 47.115 74.9808 46.7184 75.7493 46.3465C75.7493 43.4462 75.7493 40.5706 75.7493 37.6951C74.9808 38.29 74.2619 38.8602 73.5678 39.3807Z" fill="#D7B46A"/>
<path fill-rule="evenodd" clip-rule="evenodd" d="M69.9981 42.2067C69.9981 44.5864 69.9733 46.9662 69.9733 49.346C70.5187 49.0733 71.0641 48.7758 71.659 48.4783C71.659 45.9498 71.659 43.4213 71.6838 40.8928C71.0889 41.339 70.5187 41.7852 69.9981 42.2067Z" fill="#D7B46A"/>
<path fill-rule="evenodd" clip-rule="evenodd" d="M67.1722 44.4127C67.1722 46.5446 67.1474 48.6765 67.1474 50.8084C67.5688 50.5853 68.015 50.3622 68.486 50.1143C68.486 47.8584 68.5108 45.6026 68.5108 43.3716C68.0398 43.7434 67.5936 44.0905 67.1722 44.4127Z" fill="#D7B46A"/>
<path fill-rule="evenodd" clip-rule="evenodd" d="M84.2272 44.859C84.252 48.5279 84.252 52.2215 84.2768 55.9151C85.7641 55.6672 87.3506 55.3945 89.0611 55.097C89.0363 50.9572 89.0115 46.867 88.9619 42.752C87.2763 43.4956 85.7145 44.2145 84.2272 44.859Z" fill="#D7B46A"/>
<path fill-rule="evenodd" clip-rule="evenodd" d="M78.3026 47.4618C78.3026 50.61 78.3026 53.7583 78.3273 56.9065C79.2693 56.733 80.2609 56.5842 81.3021 56.3859C81.3021 52.965 81.2773 49.5441 81.2773 46.1479C80.2113 46.6437 79.2198 47.0652 78.3026 47.4618Z" fill="#D7B46A"/>
<path fill-rule="evenodd" clip-rule="evenodd" d="M73.5678 49.5692C73.5678 52.296 73.5678 55.0229 73.5678 57.7497C74.2619 57.6257 75.0056 57.5018 75.7493 57.353C75.7493 54.4279 75.7493 51.5028 75.7493 48.5776C74.9808 48.9495 74.2619 49.2717 73.5678 49.5692Z" fill="#D7B46A"/>
<path fill-rule="evenodd" clip-rule="evenodd" d="M69.9733 51.2051C69.9733 53.6097 69.9733 56.0142 69.9485 58.4188C70.4939 58.3196 71.0393 58.2205 71.6342 58.1213C71.6342 55.568 71.6342 53.0147 71.659 50.4614C71.0641 50.7093 70.5187 50.9572 69.9733 51.2051Z" fill="#D7B46A"/>
<path fill-rule="evenodd" clip-rule="evenodd" d="M67.1226 52.4693C67.1226 54.626 67.0978 56.7579 67.0978 58.9145C67.5192 58.8402 67.9654 58.7658 68.4364 58.6914C68.4364 56.4108 68.4612 54.155 68.4612 51.8992C68.015 52.0727 67.5688 52.271 67.1226 52.4693Z" fill="#D7B46A"/>
<path fill-rule="evenodd" clip-rule="evenodd" d="M84.3016 59.1626C84.3264 62.9058 84.3264 66.6242 84.3511 70.3922C85.8633 70.6649 87.4498 70.9623 89.1851 71.2846C89.1603 67.0952 89.1355 62.9058 89.0859 58.7412C87.3754 58.8899 85.7889 59.0387 84.3016 59.1626Z" fill="#D7B46A"/>
<path fill-rule="evenodd" clip-rule="evenodd" d="M78.3273 59.7326C78.3273 62.9057 78.3273 66.1283 78.3521 69.3261C79.2941 69.4996 80.2857 69.6731 81.3516 69.8467C81.3516 66.3762 81.3268 62.9057 81.3268 59.46C80.2361 59.5343 79.2445 59.6335 78.3273 59.7326Z" fill="#D7B46A"/>
<path fill-rule="evenodd" clip-rule="evenodd" d="M73.5678 60.1788C73.5678 62.9304 73.5678 65.682 73.5678 68.4584C74.2619 68.5824 75.0056 68.7063 75.7741 68.855C75.7741 65.8803 75.7741 62.9304 75.7741 59.9805C74.9808 60.0548 74.2619 60.1292 73.5678 60.1788Z" fill="#D7B46A"/>
<path fill-rule="evenodd" clip-rule="evenodd" d="M69.9486 60.5507C69.9486 62.9801 69.9238 65.4094 69.9238 67.8388C70.4691 67.9379 71.0393 68.0371 71.6094 68.1362C71.6094 65.5334 71.6094 62.9553 71.6342 60.3772C71.0393 60.4268 70.4939 60.5011 69.9486 60.5507Z" fill="#D7B46A"/>
<path fill-rule="evenodd" clip-rule="evenodd" d="M67.0978 60.8234C67.0978 62.9801 67.073 65.1615 67.073 67.3182C67.5192 67.3926 67.9406 67.4917 68.4116 67.5661C68.4116 65.2855 68.4364 62.9801 68.4364 60.6995C67.9654 60.749 67.5192 60.7738 67.0978 60.8234Z" fill="#D7B46A"/>
<path d="M38.7636 95.0574H40.3997C41.1434 95.0574 41.6888 94.8838 42.0358 94.5368C42.3829 94.165 42.5564 93.6692 42.5564 92.9999C42.5564 92.3305 42.3829 91.8348 42.0358 91.4629C41.8623 91.2894 41.6392 91.1407 41.3913 91.0663C41.1434 90.9919 40.7964 90.9423 40.3997 90.9423H38.7636V95.0574ZM37.2267 95.6275V90.3474C37.2267 90.2235 37.2019 90.1491 37.1523 90.0747C37.1028 90.0251 37.0036 89.9508 36.8549 89.926V89.7525H40.6228C41.4161 89.7525 42.011 89.8516 42.482 90.0499C43.1265 90.3226 43.5728 90.7936 43.8454 91.4133C44.0438 91.8595 44.1429 92.3801 44.1429 92.9751C44.1429 94.0906 43.8206 94.9086 43.1761 95.4788C42.8787 95.7267 42.5316 95.925 42.135 96.0241C41.7383 96.1481 41.2426 96.1977 40.6476 96.1977H36.8797V96.0241C37.0036 95.9994 37.1028 95.9498 37.1523 95.8754C37.2019 95.8506 37.2267 95.7515 37.2267 95.6275ZM33.1117 93.7187L32.0705 91.6364L31.079 93.7187H33.1117ZM33.5827 94.6112H30.6327L30.3105 95.3053C30.2361 95.4788 30.1865 95.6027 30.1865 95.7019C30.1865 95.8754 30.3105 95.9994 30.5584 96.0489V96.2225H28.2034V96.0489C28.3521 96.0241 28.4513 95.9746 28.5257 95.925C28.6 95.8506 28.6744 95.7267 28.7736 95.5284L31.1037 90.744C31.2029 90.5705 31.2277 90.397 31.2277 90.273C31.2277 90.1243 31.1285 90.0004 30.9054 89.9012V89.7277H33.3844V89.9012C33.186 89.9756 33.0621 90.1243 33.0621 90.2978C33.0621 90.4218 33.1117 90.5705 33.2108 90.7688L35.6402 95.4044C35.7641 95.6523 35.8881 95.8258 35.9624 95.9002C36.0368 95.9746 36.1608 96.0241 36.3095 96.0489V96.2225H33.6818V96.0489C33.9297 95.9994 34.0537 95.9002 34.0537 95.7019C34.0537 95.5779 34.0041 95.4292 33.9049 95.2557L33.5827 94.6112ZM22.2788 92.4049H24.5842C24.9312 92.4049 25.2039 92.3553 25.3526 92.281C25.6005 92.1818 25.6997 91.9835 25.6997 91.6612C25.6997 91.3885 25.6253 91.1902 25.4518 91.0911C25.2783 90.9919 24.9808 90.9176 24.5594 90.9176H22.254V92.4049H22.2788ZM22.2788 93.57V95.6275C22.2788 95.7515 22.3035 95.8258 22.3531 95.9002C22.4027 95.9746 22.5019 96.0241 22.6506 96.0489V96.2225H20.3948V96.0489C20.5187 96.0241 20.6179 95.9746 20.6675 95.9002C20.717 95.8258 20.7418 95.7515 20.7418 95.6275V90.3474C20.7418 90.2235 20.717 90.1491 20.6675 90.0747C20.6179 90.0251 20.5187 89.9508 20.37 89.926V89.7525H24.5594C25.1047 89.7525 25.5262 89.7772 25.7988 89.8268C26.0963 89.8764 26.3442 89.9756 26.5673 90.1243C27.0383 90.4218 27.2614 90.9176 27.2614 91.6117C27.2614 92.1322 27.1127 92.5536 26.84 92.8263C26.5425 93.1238 26.0963 93.3221 25.4518 93.4709L26.6665 95.1813C26.8896 95.5036 27.0631 95.7019 27.187 95.8258C27.311 95.9498 27.4597 95.9994 27.6332 96.0489V96.2225H24.9808V96.0489C25.1791 95.9994 25.2783 95.9002 25.2783 95.801C25.2783 95.7267 25.2039 95.5779 25.1047 95.4044L23.8157 93.5452H22.2788V93.57ZM19.0066 90.3474V93.7683C19.0066 94.5368 18.8578 95.1317 18.5604 95.4788C18.0646 96.0489 17.1474 96.3464 15.784 96.3464C14.8668 96.3464 14.1479 96.1977 13.5777 95.925C13.1811 95.7267 12.9084 95.4292 12.7597 95.0574C12.6109 94.7103 12.5614 94.2889 12.5614 93.7683V90.3474C12.5614 90.2235 12.5366 90.1491 12.487 90.0747C12.4374 90.0251 12.3383 89.9508 12.1895 89.926V89.7525H14.4701V89.926C14.3214 89.9756 14.2222 90.0251 14.1727 90.0747C14.1231 90.1491 14.0983 90.2235 14.0983 90.3474V93.4461C14.0983 93.8179 14.1231 94.0906 14.1974 94.2641C14.2718 94.4624 14.371 94.6112 14.5197 94.7351C14.842 94.983 15.2882 95.1069 15.8831 95.1069C16.4781 95.1069 16.9243 94.983 17.2465 94.7351C17.3953 94.6112 17.4944 94.4624 17.5688 94.2641C17.6184 94.0658 17.6679 93.7931 17.6679 93.4461V90.3474C17.6679 90.2235 17.6432 90.1491 17.5936 90.0747C17.544 90.0251 17.4448 89.9508 17.2961 89.926V89.7525H19.428V89.926C19.2793 89.9756 19.2049 90.0251 19.1305 90.0747C19.0314 90.1491 19.0066 90.2482 19.0066 90.3474ZM5.91783 96.2225L3.04227 90.7936V95.6275C3.04227 95.7515 3.06706 95.8258 3.11664 95.9002C3.16621 95.9498 3.26537 95.9994 3.41411 96.0489V96.2225H1.1087V96.0489C1.25744 95.9994 1.33181 95.9498 1.40618 95.9002C1.45575 95.8506 1.48054 95.7515 1.48054 95.6275V88.9592C1.48054 88.8353 1.45575 88.7609 1.40618 88.6865C1.3566 88.6369 1.25744 88.5874 1.1087 88.5378V88.3643H4.133V88.5378C3.95947 88.5874 3.86031 88.6865 3.86031 88.86C3.86031 88.9344 3.8851 89.0336 3.93468 89.1327L6.06656 93.1982L8.22323 89.2071C8.32239 89.0336 8.37197 88.9096 8.37197 88.8105C8.37197 88.6617 8.27281 88.5626 8.07449 88.5378V88.3643H11.0244V88.5378C10.8757 88.5874 10.8013 88.6369 10.7269 88.6865C10.6774 88.7361 10.6526 88.8353 10.6526 88.9592V95.6275C10.6526 95.7515 10.6774 95.8258 10.7269 95.9002C10.7765 95.9498 10.8757 95.9994 11.0244 96.0489V96.2225H8.59507V96.0489C8.71902 96.0241 8.81817 95.9746 8.86775 95.9002C8.91733 95.8258 8.94212 95.7515 8.94212 95.6275V90.7936L5.91783 96.2225Z" fill="#333B8F"/>
<path d="M110.653 90.3474L109.884 91.8595L109.735 91.7852C109.735 91.6612 109.686 91.5621 109.611 91.4877C109.388 91.2894 109.066 91.1407 108.645 90.9919C108.223 90.868 107.802 90.7936 107.356 90.7936C106.984 90.7936 106.661 90.8432 106.364 90.9423C105.943 91.0911 105.744 91.3142 105.744 91.5869C105.744 91.7852 105.843 91.9091 106.042 91.9835C106.24 92.0579 106.612 92.1322 107.182 92.1818L108.074 92.2562C108.868 92.3058 109.463 92.4793 109.884 92.7272C110.107 92.8759 110.306 93.0494 110.454 93.2725C110.653 93.57 110.727 93.8923 110.727 94.2393C110.727 94.9086 110.429 95.4044 109.835 95.801C109.264 96.1729 108.521 96.3464 107.554 96.3464C106.587 96.3464 105.645 96.1481 104.753 95.7267C104.703 95.7019 104.629 95.6771 104.604 95.6771C104.53 95.6771 104.455 95.7267 104.381 95.8258L104.232 95.7763L104.901 94.1897L105.05 94.2393C105.05 94.2641 105.05 94.2889 105.05 94.2889C105.05 94.3881 105.1 94.4624 105.174 94.5368C105.372 94.7103 105.695 94.8591 106.166 94.983C106.637 95.1069 107.108 95.1813 107.554 95.1813C107.951 95.1813 108.322 95.1317 108.645 95.0078C109.041 94.8838 109.24 94.6607 109.24 94.3633C109.24 94.1402 109.091 93.9666 108.818 93.8675C108.645 93.7931 108.298 93.7435 107.827 93.7187L106.934 93.6444C106.438 93.5948 106.091 93.57 105.819 93.4956C105.571 93.4461 105.348 93.3469 105.149 93.223C104.901 93.0742 104.728 92.8511 104.579 92.6032C104.43 92.3305 104.381 92.0579 104.381 91.7356C104.381 91.0167 104.678 90.4961 105.273 90.1243C105.819 89.7772 106.513 89.6285 107.306 89.6285C107.752 89.6285 108.149 89.6781 108.545 89.7773C108.917 89.8764 109.388 90.0499 109.909 90.2978C110.058 90.3722 110.182 90.397 110.231 90.397C110.281 90.397 110.38 90.3474 110.454 90.273L110.653 90.3474ZM101.828 93.7435H100.365C100.241 93.7435 100.142 93.7683 100.092 93.8179C100.018 93.8675 99.9684 93.9666 99.9436 94.1154H99.7948V92.4049H99.9436C99.9932 92.5289 100.043 92.628 100.092 92.6776C100.167 92.7272 100.241 92.752 100.365 92.752H103.414V92.9255C103.29 92.9751 103.191 93.0246 103.141 93.099C103.092 93.1734 103.067 93.2725 103.067 93.4213V94.7847C103.067 94.9086 103.092 95.0078 103.141 95.0574C103.191 95.1317 103.29 95.1813 103.414 95.2061V95.3301C102.175 96.0242 100.935 96.3712 99.7205 96.3712C98.6545 96.3712 97.8117 96.1233 97.1424 95.6275C96.7953 95.3548 96.4979 95.0078 96.2748 94.6112C96.0269 94.1154 95.9029 93.6196 95.9029 93.0494C95.9029 92.281 96.126 91.6117 96.597 91.0167C97.3159 90.0995 98.3819 89.6533 99.8196 89.6533C100.439 89.6533 101.158 89.802 101.952 90.0747C102.274 90.1739 102.447 90.2482 102.497 90.2482C102.571 90.2482 102.646 90.2235 102.72 90.1491L102.869 90.2235L102.1 91.8595L101.952 91.7852C101.952 91.7604 101.952 91.7604 101.952 91.7604C101.952 91.6117 101.803 91.4629 101.53 91.3142C101.01 91.0415 100.439 90.8928 99.8444 90.8928C99.1503 90.8928 98.5802 91.0911 98.134 91.4629C97.663 91.8595 97.4399 92.4049 97.4399 93.0742C97.4399 93.7187 97.663 94.2145 98.0844 94.5864C98.5306 94.983 99.1255 95.1813 99.9188 95.1813C100.662 95.1813 101.307 95.0326 101.803 94.7599V93.7435H101.828ZM89.0859 91.9835V95.6523C89.0859 95.7763 89.1107 95.8506 89.1602 95.925C89.2098 95.9994 89.309 96.0489 89.4329 96.0737V96.2473H87.301V96.0737C87.425 96.0489 87.5241 95.9994 87.5737 95.925C87.6233 95.8506 87.6481 95.7763 87.6481 95.6523V90.3722C87.6481 90.2482 87.6233 90.1739 87.5737 90.0995C87.5241 90.0499 87.425 89.9756 87.2762 89.9508V89.7773H89.7304V89.9508C89.5569 90.0003 89.4825 90.0747 89.4825 90.1739C89.4825 90.273 89.5569 90.3722 89.656 90.4961L93.0769 93.9418V90.397C93.0769 90.273 93.0522 90.1987 93.0026 90.1243C92.953 90.0499 92.8538 90.0004 92.7051 89.9756V89.802H94.837V89.9756C94.6882 90.0251 94.6139 90.0747 94.5395 90.1243C94.4899 90.1987 94.4651 90.273 94.4651 90.397V95.6771C94.4651 95.801 94.4899 95.9002 94.5395 95.9498C94.5891 96.0242 94.6882 96.0737 94.837 96.0985V96.272H92.5316V96.0985C92.7051 96.0737 92.7795 95.9994 92.7795 95.8754C92.7795 95.8258 92.7547 95.7763 92.7051 95.7019C92.6555 95.6523 92.5564 95.5284 92.3828 95.3548L89.0859 91.9835ZM85.8385 90.3474V95.6275C85.8385 95.7515 85.8633 95.8506 85.9128 95.9002C85.9624 95.9746 86.0616 96.0241 86.2103 96.0489V96.2225H83.9545V96.0489C84.0784 96.0241 84.1776 95.9746 84.2272 95.9002C84.2767 95.8258 84.3015 95.7515 84.3015 95.6275V90.3474C84.3015 90.2235 84.2767 90.1491 84.2272 90.0747C84.1776 90.0251 84.0784 89.9508 83.9297 89.926V89.7525H86.1855V89.926C86.0368 89.9756 85.9624 90.0251 85.888 90.0747C85.8633 90.1491 85.8385 90.2482 85.8385 90.3474ZM77.5836 95.0574H79.2197C79.9634 95.0574 80.5088 94.8838 80.8558 94.5368C81.2029 94.165 81.3764 93.6692 81.3764 92.9999C81.3764 92.3305 81.2029 91.8348 80.8558 91.4629C80.6823 91.2894 80.4592 91.1407 80.2113 91.0663C79.9634 90.9919 79.6164 90.9423 79.2197 90.9423H77.5836V95.0574ZM76.0467 95.6275V90.3474C76.0467 90.2235 76.0219 90.1491 75.9723 90.0747C75.9228 90.0251 75.8236 89.9508 75.6749 89.926V89.7525H79.4428C80.2361 89.7525 80.831 89.8516 81.302 90.0499C81.9465 90.3226 82.3928 90.7936 82.6654 91.4133C82.8638 91.8595 82.9629 92.3801 82.9629 92.9751C82.9629 94.0906 82.6406 94.9086 81.9961 95.4788C81.6987 95.7267 81.3516 95.925 80.955 96.0241C80.5583 96.1481 80.0626 96.1977 79.4676 96.1977H75.6996V96.0241C75.8236 95.9994 75.9228 95.9498 75.9723 95.8754C76.0219 95.8506 76.0467 95.7515 76.0467 95.6275ZM70.8657 95.0574H74.4602C74.5841 95.0574 74.6833 95.0326 74.7329 94.983C74.7824 94.9334 74.8568 94.8343 74.8816 94.6855H75.0303V96.5943H74.8816C74.832 96.4456 74.7824 96.3712 74.7329 96.2968C74.6585 96.2473 74.5841 96.2225 74.4602 96.2225H68.9817V96.0489C69.1057 96.0241 69.2049 95.9746 69.2544 95.9002C69.304 95.8258 69.3288 95.7515 69.3288 95.6275V90.3474C69.3288 90.2235 69.304 90.1491 69.2544 90.0747C69.2049 90.0251 69.1057 89.9508 68.957 89.926V89.7525H71.2128V89.926C71.064 89.9756 70.9897 90.0251 70.9153 90.0747C70.8657 90.1491 70.8409 90.2235 70.8409 90.3474V95.0574H70.8657ZM67.4696 90.3474V95.6275C67.4696 95.7515 67.4944 95.8506 67.544 95.9002C67.5935 95.9746 67.6927 96.0241 67.8414 96.0489V96.2225H65.5608V96.0489C65.6848 96.0241 65.7839 95.9746 65.8335 95.9002C65.8831 95.8258 65.9079 95.7515 65.9079 95.6275V90.3474C65.9079 90.2235 65.8831 90.1491 65.8335 90.0747C65.7839 90.0251 65.6848 89.9508 65.536 89.926V89.7525H67.7919V89.926C67.6431 89.9756 67.5688 90.0251 67.4944 90.0747C67.4944 90.1491 67.4696 90.2482 67.4696 90.3474ZM64.1974 90.3474V93.7683C64.1974 94.5368 64.0487 95.1317 63.7512 95.4788C63.2554 96.0489 62.3382 96.3464 60.9748 96.3464C60.0576 96.3464 59.3387 96.1977 58.7686 95.925C58.3719 95.7267 58.0993 95.4292 57.9505 95.0574C57.8018 94.7103 57.7522 94.2889 57.7522 93.7683V90.3474C57.7522 90.2235 57.7274 90.1491 57.6778 90.0747C57.6283 90.0251 57.5291 89.9508 57.3804 89.926V89.7525H59.661V89.926C59.5122 89.9756 59.4131 90.0251 59.3635 90.0747C59.3139 90.1491 59.2891 90.2235 59.2891 90.3474V93.4461C59.2891 93.8179 59.3139 94.0906 59.3883 94.2641C59.4627 94.4624 59.5618 94.6112 59.7106 94.7351C60.0328 94.983 60.479 95.1069 61.074 95.1069C61.6689 95.1069 62.1151 94.983 62.4374 94.7351C62.5861 94.6112 62.6853 94.4624 62.7596 94.2641C62.8092 94.0658 62.8588 93.7931 62.8588 93.4461V90.3474C62.8588 90.2235 62.834 90.1491 62.7844 90.0747C62.7348 90.0251 62.6357 89.9508 62.487 89.926V89.7525H64.6188V89.926C64.4701 89.9756 64.3957 90.0251 64.3214 90.0747C64.2222 90.1491 64.1974 90.2482 64.1974 90.3474ZM50.241 94.9334H53.1414C53.6868 94.9334 54.0586 94.8591 54.3065 94.7103C54.5792 94.5368 54.7031 94.2641 54.7031 93.8675C54.7031 93.4709 54.5792 93.1982 54.3065 93.0246C54.0834 92.8759 53.6868 92.8015 53.1414 92.8015H50.241V94.9334ZM50.241 91.4877H53.2406C53.6868 91.4877 54.009 91.4133 54.1825 91.2894C54.3809 91.1407 54.48 90.8928 54.48 90.5705C54.48 90.2482 54.3809 90.0004 54.2073 89.8764C54.009 89.7277 53.6868 89.6533 53.2406 89.6533H50.241V91.4877ZM55.1245 92.1074C55.9922 92.4297 56.4384 93.0742 56.4384 93.9666C56.4384 94.6855 56.1905 95.2557 55.6699 95.6523C55.422 95.8506 55.0997 95.9994 54.7775 96.0985C54.4304 96.1977 54.009 96.2225 53.5132 96.2225H48.1835V96.0489C48.3323 95.9994 48.4066 95.9498 48.481 95.9002C48.5306 95.8506 48.5554 95.7515 48.5554 95.6275V88.9592C48.5554 88.8353 48.5306 88.7609 48.481 88.6865C48.4314 88.6369 48.3323 88.5874 48.1835 88.5378V88.3643H53.4637C53.9594 88.3643 54.3809 88.4138 54.6783 88.4882C55.0006 88.5626 55.2485 88.6865 55.4964 88.8848C55.9674 89.2567 56.1905 89.7772 56.1905 90.4713C56.1905 91.215 55.8434 91.7604 55.1245 92.1074Z" fill="#333B8F"/>
<path d="M110.553 84.4724H0.612915V85.8854H110.553V84.4724Z" fill="#333B8F"/>
<path d="M110.553 99.0732H0.612915V100.486H110.553V99.0732Z" fill="#333B8F"/>
</svg>

