<svg xmlns="http://www.w3.org/2000/svg" width="58" height="60" viewBox="0 0 58 60">
  <defs>
    <style>
      .cls-1 {
        fill: #ff9021;
        fill-rule: evenodd;
      }
    </style>
  </defs>
  <path id="icon_004.svg" class="cls-1" d="M1476.11,4273.03a5.489,5.489,0,0,1-.74-5.95,3.179,3.179,0,0,0-2.88-1.87h-7.05l0.29-.78a10.859,10.859,0,0,0,.69-3.83v-0.12a3.723,3.723,0,0,0-1.1-2.64,3.635,3.635,0,0,0-2.64-1.04,3.746,3.746,0,0,0-3.52,3.8c0,0.96-1.33,3.15-2.4,4.61h-7.95a0.922,0.922,0,0,0-.91.92v18.39a0.915,0.915,0,0,0,.91.92h22.26a3.159,3.159,0,0,0,2.76-1.63,3.253,3.253,0,0,0-.05-3.25,3.21,3.21,0,0,0,1.8-2.22A4.243,4.243,0,0,1,1476.11,4273.03Zm-26.39-5.98h6.58v16.55h-6.58v-16.55Zm23.21,7.36h-0.44a0.92,0.92,0,0,0,0,1.84,1.38,1.38,0,0,1,0,2.76h-1.42a0.915,0.915,0,0,0,0,1.83,1.38,1.38,0,0,1,0,2.76h-12.96v-17.16c0.77-1.03,2.86-4,2.86-5.84a1.914,1.914,0,0,1,1.76-1.96,1.77,1.77,0,0,1,1.32.52,1.853,1.853,0,0,1,.56,1.33v0.11a9.045,9.045,0,0,1-.58,3.18l-0.75,2.03a0.92,0.92,0,0,0,.1.85,0.894,0.894,0,0,0,.74.39h8.37a1.38,1.38,0,0,1,0,2.76,0.92,0.92,0,0,0,0,1.84h0.44a1.38,1.38,0,0,1,0,2.76h0Zm-20.54,3.87a2.39,2.39,0,1,0,2.35,2.39A2.371,2.371,0,0,0,1452.39,4278.28Zm0,2.94a0.555,0.555,0,1,1,.54-0.55A0.548,0.548,0,0,1,1452.39,4281.22Zm37.7-9.41a5.992,5.992,0,0,0,.76-4.49,5.838,5.838,0,0,0-2.61-3.7,4.12,4.12,0,0,1-1.87-3.95,6,6,0,0,0-1.23-4.38,5.832,5.832,0,0,0-3.94-2.19,4.036,4.036,0,0,1-3.37-2.72,5.89,5.89,0,0,0-2.99-3.41,5.765,5.765,0,0,0-4.48-.24,4,4,0,0,1-4.21-.98,5.784,5.784,0,0,0-8.29,0,3.981,3.981,0,0,1-4.21.98,5.763,5.763,0,0,0-4.48.24,5.89,5.89,0,0,0-2.99,3.41,4.036,4.036,0,0,1-3.37,2.72,5.806,5.806,0,0,0-3.94,2.2,5.978,5.978,0,0,0-1.23,4.38,4.114,4.114,0,0,1-1.87,3.94,5.864,5.864,0,0,0-2.61,3.7,5.992,5.992,0,0,0,.76,4.49,4.121,4.121,0,0,1,0,4.38,5.992,5.992,0,0,0-.76,4.49,5.838,5.838,0,0,0,2.61,3.7,4.114,4.114,0,0,1,1.87,3.94,6.015,6.015,0,0,0,1.23,4.39,5.832,5.832,0,0,0,3.94,2.19,4.036,4.036,0,0,1,3.37,2.72,5.89,5.89,0,0,0,2.99,3.41,5.765,5.765,0,0,0,4.48.24,4,4,0,0,1,4.21.97,5.761,5.761,0,0,0,8.29,0,4,4,0,0,1,4.21-.97,5.765,5.765,0,0,0,4.48-.24,5.89,5.89,0,0,0,2.99-3.41,4.036,4.036,0,0,1,3.37-2.72,5.806,5.806,0,0,0,3.94-2.2,5.978,5.978,0,0,0,1.23-4.38,4.114,4.114,0,0,1,1.87-3.94,5.932,5.932,0,0,0,2.61-3.71,6,6,0,0,0-.76-4.49A4.1,4.1,0,0,1,1490.09,4271.81Zm-1.53,5.36a4.161,4.161,0,0,1,.52,3.1,4.018,4.018,0,0,1-1.79,2.55,5.971,5.971,0,0,0-2.72,5.72,4.1,4.1,0,0,1-.85,3.02,3.993,3.993,0,0,1-2.71,1.51,5.875,5.875,0,0,0-4.9,3.96,4.1,4.1,0,0,1-2.05,2.35,3.975,3.975,0,0,1-3.1.16,5.8,5.8,0,0,0-6.1,1.42,4,4,0,0,1-5.71,0,5.813,5.813,0,0,0-6.11-1.42,3.952,3.952,0,0,1-3.09-.16,4.033,4.033,0,0,1-2.05-2.35,5.875,5.875,0,0,0-4.9-3.96,3.972,3.972,0,0,1-2.71-1.51,4.1,4.1,0,0,1-.85-3.02,5.971,5.971,0,0,0-2.72-5.72,4.068,4.068,0,0,1-1.8-2.55,4.119,4.119,0,0,1,.53-3.1,5.99,5.99,0,0,0,0-6.34,4.119,4.119,0,0,1-.53-3.1,4.068,4.068,0,0,1,1.8-2.55,5.971,5.971,0,0,0,2.72-5.72,4.1,4.1,0,0,1,.85-3.02,3.972,3.972,0,0,1,2.71-1.51,5.875,5.875,0,0,0,4.9-3.96,4.067,4.067,0,0,1,2.05-2.35,3.952,3.952,0,0,1,3.09-.16,5.813,5.813,0,0,0,6.11-1.42,3.973,3.973,0,0,1,5.71,0,5.8,5.8,0,0,0,6.1,1.42,3.975,3.975,0,0,1,3.1.16,4.1,4.1,0,0,1,2.05,2.35,5.875,5.875,0,0,0,4.9,3.96,3.993,3.993,0,0,1,2.71,1.51,4.1,4.1,0,0,1,.85,3.02,5.971,5.971,0,0,0,2.72,5.72,4.068,4.068,0,0,1,1.8,2.55,4.212,4.212,0,0,1-.53,3.1A5.99,5.99,0,0,0,1488.56,4277.17ZM1462,4251.65a22.352,22.352,0,1,0,22.05,22.35A22.2,22.2,0,0,0,1462,4251.65Zm0,42.86a20.512,20.512,0,1,1,20.23-20.51,20.363,20.363,0,0,1-20.23,20.51h0Z" transform="translate(-1433 -4244)"/>
</svg>

